<svg style="display: none;" xmlns="http://www.w3.org/2000/svg">
        <symbol id="arrow" xmlns="http://www.w3.org/2000/svg" width="10" height="9" viewBox="0 0 10 9" fill="none">
            <path d="M5.92254 7.53442C5.49466 8.21378 4.50428 8.21378 4.07639 7.53442L0.384211 1.6723C-0.0733378 0.945841 0.448747 -1.92373e-06 1.30729 -1.84868e-06L8.69165 -1.20312e-06C9.55019 -1.12806e-06 10.0723 0.94584 9.61472 1.6723L5.92254 7.53442Z" fill="#331A2F" fill-opacity="0.9"/>
        </symbol>

        <symbol id="creators" xmlns="http://www.w3.org/2000/svg" width="120" height="120" viewBox="0 0 120 120" fill="none">
            <g filter="url(#filter0_d_1457_20756)">
                <rect x="25" y="21" width="70" height="70" rx="15" fill="#CF51CE"/>
            </g>
            <path d="M59.4629 79.9315C58.5727 79.7261 57.751 79.4522 57.2032 78.699C56.8609 78.2197 56.587 77.6034 56.3131 77.0556C56.1761 76.7817 56.1077 76.6448 55.8338 76.5763C54.0535 76.234 52.2731 75.6177 50.6298 74.796C48.0278 73.495 45.7681 71.7147 43.9194 69.4551C43.7139 69.1812 43.5085 69.1812 43.2346 69.2496C41.5228 69.8659 39.674 69.1127 38.7838 67.5378C37.8937 65.8944 38.2361 63.9087 39.7425 62.8131C40.0164 62.6077 40.0848 62.4023 39.9479 62.0599C38.7154 58.02 38.7154 53.9116 39.9479 49.8716C40.0164 49.5977 40.0164 49.3923 39.7425 49.1869C38.2361 48.0913 37.8252 46.1056 38.7154 44.4622C39.6055 42.8188 41.4543 42.1341 43.2346 42.7504C43.577 42.8873 43.7139 42.7504 43.9194 42.5449C45.7681 40.2853 48.0278 38.505 50.6298 37.204C52.2047 36.3823 53.9165 35.8345 55.6283 35.4922C56.0392 35.4237 56.3131 35.2867 56.45 34.7389C56.7239 33.0956 58.2988 32 60.0107 32C61.7225 32 63.2289 33.2325 63.5713 34.8759C63.6398 35.2867 63.8452 35.4237 64.1876 35.4922C66.995 36.0399 69.5285 37.1355 71.8566 38.7789C73.4315 39.8745 74.801 41.107 75.965 42.5449C76.1704 42.8188 76.3759 42.8873 76.7182 42.7504C78.3616 42.1341 80.2789 42.8873 81.169 44.3937C82.0592 46.0371 81.7168 48.0228 80.2789 49.1184C80.005 49.3238 79.9365 49.5292 80.005 49.8716C81.2375 53.9116 81.2375 58.02 80.005 62.0599C79.9365 62.3338 79.9365 62.5392 80.2104 62.7447C81.5798 63.7718 82.0592 65.689 81.3744 67.2639C80.6212 68.9073 78.8409 69.8659 77.1975 69.3866C76.4443 69.1812 76.102 69.3866 75.6226 69.9344C72.6098 73.3581 68.7753 75.5492 64.3245 76.5078C63.9137 76.5763 63.6398 76.7817 63.5713 77.2611C63.1604 78.699 62.2018 79.5207 60.8323 79.9315C60.6954 79.9315 60.6269 80 60.49 80C60.0791 79.9315 59.8052 79.9315 59.4629 79.9315ZM59.9422 45.4893C54.1904 45.4893 49.4657 50.214 49.4657 55.9658C49.4657 61.7175 54.1904 66.4422 59.9422 66.4422C65.694 66.4422 70.4186 61.7175 70.4186 55.9658C70.4186 50.214 65.694 45.4893 59.9422 45.4893ZM56.3816 36.8616C51.6569 37.7518 47.8224 40.0799 44.8095 43.7775C45.6312 44.8046 45.9051 45.9001 45.6312 47.1327C45.6312 47.2696 45.7681 47.4066 45.8366 47.475C46.7268 47.9544 47.6169 48.4337 48.5071 48.913C48.9179 49.1184 49.3288 49.3923 49.7396 49.5977C52.2047 45.9686 55.5599 43.9829 59.9422 43.9829C64.3245 43.9829 67.6112 46.0371 70.0763 49.5977C71.2403 48.9815 72.3359 48.3652 73.4315 47.7489C73.9793 47.475 74.3216 47.2011 74.1847 46.4479C73.9793 45.4208 74.3901 44.5307 75.0749 43.709C72.062 40.0114 68.2275 37.6833 63.5028 36.7932C63.0235 38.2311 62.0649 39.0528 60.6269 39.3952C60.6269 40.4223 60.6269 41.4494 60.6269 42.408C60.1476 42.408 59.6683 42.408 59.1205 42.408C59.1205 41.3809 59.1205 40.3538 59.1205 39.3952C57.8195 39.0528 56.8609 38.2311 56.3816 36.8616ZM44.8095 68.1541C47.8908 71.8516 51.6569 74.1797 56.3816 75.0699C56.8609 73.7004 57.8195 72.8103 59.2575 72.4679C59.2575 71.4408 59.2575 70.4137 59.2575 69.4551C59.8052 69.4551 60.2161 69.4551 60.7639 69.4551C60.7639 70.4822 60.7639 71.5093 60.7639 72.4679C62.2018 72.8103 63.092 73.7004 63.5713 75.0699C68.296 74.1113 72.1305 71.8516 75.1433 68.1541C74.2532 66.7846 74.1847 66.3738 74.3216 64.7989C74.3216 64.6619 74.2532 64.525 74.1847 64.4565C72.8837 63.7033 71.5142 63.0185 70.1448 62.2653C67.6797 65.8944 64.3245 67.8802 59.9422 67.8802C55.5599 67.8802 52.2047 65.826 49.7396 62.2653C48.3701 63.0185 47.0691 63.7033 45.7681 64.4565C45.6997 64.525 45.5627 64.6619 45.6312 64.7989C45.9051 66.0999 45.5627 67.1954 44.8095 68.1541ZM49.0549 60.9643C47.6169 57.6091 47.6169 54.2539 49.0549 50.8987C47.6169 50.1455 46.2475 49.3238 44.8095 48.5706C43.8509 49.5977 42.7553 50.0086 41.3858 49.8716C40.1533 53.9116 40.1533 57.883 41.3858 61.923C42.7553 61.786 43.8509 62.2653 44.8095 63.224C46.2475 62.5392 47.6169 61.786 49.0549 60.9643ZM75.0749 63.2924C75.965 62.4023 76.9921 61.8545 78.2931 61.923C78.3616 61.923 78.567 61.7175 78.6355 61.6491C79.3202 59.4579 79.5941 57.2668 79.4572 54.9387C79.3887 53.2268 79.1148 51.5835 78.4985 49.9401C77.1975 50.077 76.102 49.6662 75.2118 48.776C75.1433 48.7076 74.9379 48.7076 74.801 48.776C74.1847 49.1184 73.5684 49.4608 73.0206 49.7347C72.3359 50.1455 71.5827 50.4879 70.898 50.8987C72.3359 54.2539 72.3359 57.6091 70.898 60.9643C72.2674 61.786 73.6369 62.5392 75.0749 63.2924ZM59.9422 37.9572C61.1747 37.9572 62.2018 36.9301 62.2018 35.766C62.2018 34.5335 61.2432 33.5064 60.0107 33.5064C58.7781 33.5064 57.751 34.5335 57.751 35.766C57.6826 36.9301 58.7097 37.9572 59.9422 37.9572ZM44.1933 46.2425C44.1933 45.01 43.1662 43.9829 41.9336 43.9829C40.7011 43.9829 39.674 45.01 39.674 46.2425C39.674 47.475 40.7011 48.4337 41.9336 48.4337C43.2346 48.4337 44.1933 47.4066 44.1933 46.2425ZM80.1419 46.2425C80.1419 45.01 79.1148 43.9829 77.9507 43.9829C76.7182 43.9829 75.6911 44.9415 75.6911 46.174C75.6911 47.4066 76.7182 48.4337 77.9507 48.4337C79.1148 48.5021 80.1419 47.475 80.1419 46.2425ZM44.1933 65.689C44.1933 64.4565 43.1662 63.4294 41.9336 63.4294C40.7011 63.4294 39.674 64.4565 39.674 65.689C39.674 66.9215 40.7011 67.9486 41.9336 67.9486C43.2346 67.9486 44.1933 66.9215 44.1933 65.689ZM80.1419 65.689C80.1419 64.4565 79.1148 63.4294 77.9507 63.4294C76.7182 63.4294 75.6911 64.388 75.6911 65.6205C75.6911 66.8531 76.7182 67.8802 77.9507 67.8802C79.1148 67.9486 80.1419 66.9215 80.1419 65.689ZM59.9422 73.9743C58.7097 73.9743 57.6826 75.0014 57.6826 76.1655C57.6826 77.398 58.7097 78.4251 59.9422 78.4251C61.1747 78.4251 62.2018 77.398 62.2018 76.1655C62.2018 74.933 61.1747 73.9743 59.9422 73.9743Z" fill="white"/>
            <path d="M57.545 55.0748C56.1071 53.7738 55.9017 52.1989 56.3125 50.487C56.7233 48.7067 58.5037 47.5427 60.2155 47.6796C62.2012 47.885 63.5022 49.3915 63.6392 51.3772C63.7077 52.7467 63.4338 53.9792 62.2697 55.0063C62.4751 55.1432 62.6806 55.3487 62.886 55.4856C63.9816 56.1703 65.1456 56.8551 66.2412 57.4713C66.5151 57.6083 66.652 57.8137 66.5835 58.1561C66.5835 58.8408 66.5835 59.5255 66.5835 60.1418C66.652 61.032 66.1727 61.6482 65.4195 61.9221C64.6663 62.196 63.8446 62.4014 63.0914 62.4699C60.6263 62.6753 58.0928 62.7438 55.6278 62.333C55.2169 62.2645 54.8061 62.1275 54.3952 61.9906C53.5736 61.6482 53.0942 61.032 53.1627 60.1418C53.1627 59.4571 53.1627 58.7723 53.1627 58.0876C53.1627 57.8137 53.2312 57.6768 53.4366 57.5398C54.6007 56.8551 55.6962 56.1703 56.8603 55.4856C57.1342 55.4171 57.3396 55.2802 57.545 55.0748ZM59.5308 61.2374C60.9002 61.1689 61.8589 61.1689 62.8175 61.1004C63.4338 61.032 64.1185 60.895 64.7348 60.7581C65.0771 60.6896 65.1456 60.4842 65.1456 60.1418C65.351 59.0462 64.9402 58.293 63.8446 57.8822C63.7077 57.8137 63.5707 57.7452 63.5022 57.6768C62.6806 57.129 61.8589 56.5127 61.0372 55.9649C60.9687 55.8964 60.7633 55.8965 60.6263 55.8965C60.0786 55.8965 59.5992 55.8965 59.0515 55.8965C58.9145 55.8965 58.7091 55.8964 58.6406 55.9649C57.7505 56.9236 56.5864 57.4713 55.4908 58.0876C54.8061 58.4984 54.4637 58.9093 54.6007 59.731C54.6691 60.6896 54.6691 60.6896 55.5593 60.9635C55.6278 60.9635 55.6278 60.9635 55.6962 60.9635C57.2027 61.032 58.5721 61.1689 59.5308 61.2374ZM57.682 51.788C57.682 51.9935 57.682 52.1989 57.682 52.4043C57.7505 53.5683 58.7091 54.39 59.8047 54.4585C60.9002 54.527 61.9273 53.7738 62.0643 52.6782C62.1328 52.0619 62.1328 51.4457 61.9958 50.8979C61.6535 49.5284 60.0101 48.8437 58.7776 49.5284C58.0243 50.0077 57.682 50.8294 57.682 51.788Z" fill="white"/>
            <path d="M60.6958 36.4497C60.2164 36.4497 59.7371 36.4497 59.2578 36.4497C59.2578 35.9703 59.2578 35.491 59.2578 35.0117C59.7371 35.0117 60.2164 35.0117 60.6958 35.0117C60.6958 35.491 60.6958 35.9703 60.6958 36.4497Z" fill="white"/>
            <path d="M42.686 46.9267C42.2067 46.9267 41.7274 46.9267 41.248 46.9267C41.248 46.4474 41.248 45.9681 41.248 45.4888C41.7274 45.4888 42.2067 45.4888 42.686 45.4888C42.686 45.9681 42.686 46.4474 42.686 46.9267Z" fill="white"/>
            <path d="M78.6352 45.4888C78.6352 45.9681 78.6352 46.4474 78.6352 46.9267C78.1559 46.9267 77.6766 46.9267 77.1973 46.9267C77.1973 46.4474 77.1973 45.9681 77.1973 45.4888C77.6766 45.4888 78.1559 45.4888 78.6352 45.4888Z" fill="white"/>
            <path d="M42.686 66.4417C42.2067 66.4417 41.7274 66.4417 41.248 66.4417C41.248 65.9624 41.248 65.4831 41.248 65.0038C41.7274 65.0038 42.2067 65.0038 42.686 65.0038C42.686 65.4831 42.686 65.9624 42.686 66.4417Z" fill="white"/>
            <path d="M78.6352 65.0038C78.6352 65.4831 78.6352 65.9624 78.6352 66.4417C78.1559 66.4417 77.6766 66.4417 77.1973 66.4417C77.1973 65.9624 77.1973 65.4831 77.1973 65.0038C77.6766 65.0038 78.1559 65.0038 78.6352 65.0038Z" fill="white"/>
            <path d="M60.6958 75.4807C60.6958 75.96 60.6958 76.4393 60.6958 76.9187C60.2164 76.9187 59.7371 76.9187 59.2578 76.9187C59.2578 76.4393 59.2578 75.96 59.2578 75.4807C59.7371 75.4807 60.148 75.4807 60.6958 75.4807Z" fill="white"/>
            <defs>
                <filter id="filter0_d_1457_20756" x="0" y="0" width="120" height="120" filterUnits="userSpaceOnUse" color-interpolation-filters="sRGB">
                    <feFlood flood-opacity="0" result="BackgroundImageFix"/>
                    <feColorMatrix in="SourceAlpha" type="matrix" values="0 0 0 0 0 0 0 0 0 0 0 0 0 0 0 0 0 0 127 0" result="hardAlpha"/>
                    <feOffset dy="4"/>
                    <feGaussianBlur stdDeviation="12.5"/>
                    <feComposite in2="hardAlpha" operator="out"/>
                    <feColorMatrix type="matrix" values="0 0 0 0 0.917647 0 0 0 0 0.364706 0 0 0 0 0.733333 0 0 0 0.25 0"/>
                    <feBlend mode="normal" in2="BackgroundImageFix" result="effect1_dropShadow_1457_20756"/>
                    <feBlend mode="normal" in="SourceGraphic" in2="effect1_dropShadow_1457_20756" result="shape"/>
                </filter>
            </defs>
        </symbol>

        <symbol id="ender-mob" xmlns="http://www.w3.org/2000/svg" width="14" height="14" viewBox="0 0 14 14" fill="none">
            <path d="M1.03796 9.11277C0.70199 9.24023 0.530118 9.61777 0.689997 9.93958C1.2603 11.0875 2.15479 12.0493 3.26905 12.7016C4.57122 13.4638 6.09508 13.7574 7.58723 13.5334C9.07938 13.3095 10.4499 12.5815 11.4709 11.4706C12.492 10.3596 13.1019 8.93266 13.1994 7.42695C13.297 5.92124 12.8761 4.42751 12.0069 3.19416C11.1377 1.9608 9.87252 1.06214 8.42171 0.647598C6.97091 0.233057 5.42192 0.327618 4.03231 0.915558C2.84323 1.41866 1.83216 2.25708 1.11856 3.32186C0.918507 3.62035 1.04025 4.01691 1.35697 4.18664C1.67369 4.35638 2.06493 4.23431 2.27213 3.94074C2.84024 3.13581 3.62413 2.5012 4.53936 2.11397C5.65526 1.64183 6.89916 1.5659 8.06421 1.89879C9.22926 2.23168 10.2453 2.95334 10.9433 3.94377C11.6413 4.9342 11.9792 6.13371 11.9009 7.34285C11.8226 8.552 11.3328 9.6979 10.5128 10.59C9.69293 11.4822 8.59234 12.0668 7.39409 12.2466C6.19584 12.4264 4.97212 12.1907 3.92643 11.5786C3.0688 11.0765 2.3733 10.3461 1.91376 9.47466C1.74615 9.15681 1.37392 8.9853 1.03796 9.11277Z" fill="white"/>
            <path d="M0.826172 6.48302C0.540618 6.48302 0.309131 6.71451 0.309131 7.00006C0.309131 7.28561 0.540618 7.5171 0.826172 7.5171L0.826172 6.48302ZM9.45006 7.36566C9.65198 7.16375 9.65198 6.83638 9.45006 6.63446L6.15963 3.34403C5.95772 3.14212 5.63035 3.14212 5.42843 3.34403C5.22651 3.54595 5.22651 3.87332 5.42843 4.07524L8.35325 7.00006L5.42843 9.92488C5.22651 10.1268 5.22651 10.4542 5.42843 10.6561C5.63035 10.858 5.95772 10.858 6.15963 10.6561L9.45006 7.36566ZM0.826172 7.5171L9.08446 7.5171V6.48302L0.826172 6.48302L0.826172 7.5171Z" fill="white"/>
        </symbol>

        <symbol id="ender" xmlns="http://www.w3.org/2000/svg" width="23" height="23" viewBox="0 0 23 23" fill="none">
            <path d="M1.80675 15.1776C1.22194 15.3995 0.922763 16.0567 1.20106 16.6169C2.19378 18.615 3.75079 20.2892 5.69037 21.4246C7.95702 22.7515 10.6096 23.2625 13.2069 22.8726C15.8043 22.4828 18.1899 21.2156 19.9672 19.2818C21.7445 17.348 22.8062 14.8641 22.976 12.2432C23.1457 9.62222 22.4132 7.02213 20.9002 4.87526C19.3871 2.72839 17.1849 1.16411 14.6595 0.442526C12.1341 -0.279056 9.4378 -0.114455 7.01895 0.908958C4.94913 1.78469 3.18919 3.24411 1.94705 5.09754C1.59882 5.61713 1.81074 6.30741 2.36204 6.60286C2.91335 6.89831 3.59437 6.68584 3.95504 6.17481C4.94393 4.77369 6.30844 3.66905 7.90155 2.99501C9.84398 2.17317 12.0092 2.04099 14.0372 2.62045C16.0651 3.1999 17.8337 4.45608 19.0487 6.18009C20.2637 7.90411 20.8519 9.99207 20.7156 12.0968C20.5793 14.2015 19.7267 16.1962 18.2995 17.7491C16.8723 19.302 14.9565 20.3196 12.8707 20.6326C10.7849 20.9457 8.65486 20.5353 6.83465 19.4698C5.34178 18.5959 4.13115 17.3245 3.33123 15.8076C3.03948 15.2543 2.39155 14.9558 1.80675 15.1776Z" fill="white"/>
            <path d="M1.4375 10.6C0.940444 10.6 0.5375 11.0029 0.5375 11.5C0.5375 11.9971 0.940444 12.4 1.4375 12.4L1.4375 10.6ZM16.4489 12.1364C16.8004 11.7849 16.8004 11.2151 16.4489 10.8636L10.7213 5.13604C10.3699 4.78457 9.80001 4.78457 9.44854 5.13604C9.09707 5.48751 9.09707 6.05736 9.44854 6.40883L14.5397 11.5L9.44854 16.5912C9.09707 16.9426 9.09707 17.5125 9.44854 17.864C9.80001 18.2154 10.3699 18.2154 10.7213 17.864L16.4489 12.1364ZM1.4375 12.4L15.8125 12.4V10.6L1.4375 10.6L1.4375 12.4Z" fill="white"/>
        </symbol>

        <symbol id="friends" xmlns="http://www.w3.org/2000/svg"  width="120" height="120" viewBox="0 0 120 120" fill="none">
            <g filter="url(#filter0_d_1457_20747)">
                <rect x="25" y="21" width="70" height="70" rx="15" fill="#CF51CE"/>
            </g>
            <path d="M49.3441 79.1533C48.474 78.7666 48.0873 78.1866 48.184 77.2199C48.184 76.7365 48.184 76.1564 48.184 75.6731C47.9906 75.6731 47.7973 75.6731 47.604 75.6731C45.2838 75.6731 43.0603 75.6731 40.7401 75.6731C39.58 75.6731 39 75.093 39 73.933C39 73.4496 39 72.9662 39 72.4828C39 71.9995 39.29 71.7095 39.6767 71.7095C40.0634 71.7095 40.3534 71.9995 40.3534 72.4828C40.3534 72.9662 40.3534 73.4496 40.3534 73.933C40.3534 74.1263 40.4501 74.223 40.6435 74.223C43.157 74.223 45.5738 74.223 48.184 74.223C48.184 72.6762 48.184 71.2261 48.184 69.776C46.3472 68.6159 45.7672 67.8425 45.4771 65.7157C44.317 65.7157 43.157 65.619 42.0936 65.7157C41.1268 65.8124 40.4501 66.8758 40.3534 67.9392C40.3534 68.4226 40.3534 68.8093 40.3534 69.2926C40.3534 69.776 40.0634 70.066 39.6767 70.066C39.29 70.066 39 69.776 39 69.2926C39 68.8093 39 68.2292 39 67.7458C39.0967 66.5858 39.6767 65.619 40.6435 64.9423C40.7401 64.8456 40.8368 64.8456 40.9335 64.749C40.5468 63.4922 40.0634 62.3321 39.7734 61.172C38.2266 54.9849 39.1933 49.2812 42.7703 43.9641C42.9636 43.6741 43.0603 43.4808 42.8669 43.0941C42.3836 42.1273 42.5769 40.9673 43.3503 40.1939C44.1237 39.4205 45.1871 39.1305 46.2505 39.6138C46.4439 39.8072 46.6372 39.7105 46.8306 39.5172C47.9906 38.7438 49.0541 37.9704 50.2141 37.197C50.6975 36.907 51.0842 37.0036 51.2775 37.3903C51.4709 37.777 51.2775 38.067 50.8909 38.3571C49.8274 39.1305 48.764 39.8072 47.7006 40.5806C47.5073 40.6772 47.5073 40.8706 47.604 41.0639C47.9906 42.0307 47.7973 42.9974 47.1206 43.6741C46.4439 44.4475 45.5738 44.7375 44.5104 44.4475C44.2204 44.3508 44.1237 44.4475 43.9304 44.6409C41.9969 47.4444 40.8368 50.5379 40.5468 54.0182C40.1601 57.4984 40.7401 60.7853 42.0936 63.9756C42.1902 64.2656 42.3836 64.3623 42.7703 64.3623C44.1237 64.3623 45.4771 64.3623 46.7339 64.3623C46.8306 63.9756 46.7339 63.7822 46.5405 63.5889C45.3805 62.6221 44.6071 61.4621 44.4137 60.012C44.4137 59.7219 44.317 59.6253 44.027 59.5286C42.2869 59.0452 41.7069 56.9184 42.9636 55.565C43.0603 55.4683 43.157 55.1783 43.157 54.9849C43.157 53.5348 43.157 52.1814 43.157 50.7313C43.157 48.6045 44.5104 47.0577 46.4439 46.671C46.7339 46.5743 47.1206 46.5743 47.4106 46.5743C48.8607 46.5743 50.3108 46.5743 51.7609 46.5743C52.7277 46.5743 53.6944 46.8643 54.4678 47.5411C54.5645 47.6377 54.7578 47.6377 54.8545 47.6377C55.7245 47.251 56.5946 47.1544 57.5613 47.1544C58.0447 47.1544 58.4314 47.1544 58.9148 47.1544C59.3015 47.1544 59.5915 47.4444 59.6882 47.8311C59.6882 48.2178 59.3981 48.5078 58.9148 48.5078C58.238 48.5078 57.5613 48.5078 56.8846 48.5078C55.1445 48.5078 53.6944 49.8612 53.5977 51.6014C53.501 53.0515 53.5977 54.5016 53.5977 55.9517C53.5977 56.0483 53.5977 56.0483 53.5977 56.145C53.9844 56.2417 53.9844 56.0483 54.0811 55.7583C54.2744 54.6949 54.6611 53.7282 55.2412 52.8581C55.6279 52.3747 55.8212 52.2781 56.4012 52.4714C58.238 53.0515 59.9782 53.5348 61.9116 53.7282C62.395 53.7282 62.9751 53.7282 63.4584 53.6315C63.7484 53.5348 64.1351 53.3415 64.3285 53.1481C64.7152 52.7614 65.1985 52.7614 65.4886 53.2448C65.9719 54.0182 66.3586 54.8883 66.4553 55.7583C66.4553 55.9517 66.552 56.2417 66.842 56.145C66.842 56.0483 66.842 55.9517 66.842 55.855C66.842 54.8883 66.842 53.9215 66.842 52.9548C66.842 52.4714 66.7453 52.1814 66.1653 52.1814C65.7786 52.0847 65.5852 51.7947 65.5852 51.408C65.5852 50.6346 65.2952 50.0546 64.8119 49.4745C64.2318 48.7978 63.4584 48.5078 62.685 48.5078C62.395 48.5078 62.105 48.5078 61.9116 48.5078C61.525 48.5078 61.2349 48.2178 61.2349 47.8311C61.2349 47.4444 61.525 47.1544 61.9116 47.1544C62.9751 47.0577 64.0385 47.251 64.9085 47.7344C65.8753 46.7677 67.0353 46.4777 68.2921 46.5743C69.7422 46.5743 71.0956 46.5743 72.5457 46.5743C74.3825 46.5743 75.8326 47.7344 76.316 49.4745C76.316 49.5712 76.4127 49.7646 76.606 49.8612C77.1861 50.2479 77.4761 50.828 77.4761 51.5047C77.4761 52.5681 77.4761 53.7282 77.4761 54.7916C77.4761 54.9849 77.5728 55.2749 77.7661 55.3716C79.0229 56.7251 78.4428 58.7552 76.7027 59.3352C76.4127 59.4319 76.4127 59.5286 76.316 59.7219C76.026 61.172 75.3493 62.4288 74.1892 63.3955C73.9958 63.4922 73.9958 63.7822 73.8025 63.9756L73.8992 64.0722C74.5759 64.0722 75.1559 64.0722 75.8326 64.0722C76.5094 64.0722 77.2827 64.0722 77.9595 64.0722C78.3462 64.0722 78.4428 63.9756 78.6362 63.6856C79.9896 60.4953 80.473 57.2084 80.183 53.8248C79.8929 50.4413 78.7329 47.3477 76.8961 44.5442C76.7027 44.2542 76.5094 44.1575 76.2193 44.2542C75.2526 44.5442 74.3825 44.2542 73.7058 43.4808C73.0291 42.7074 72.8358 41.8373 73.2225 40.8706C73.1258 40.8706 73.0291 40.6772 72.8358 40.4839C70.0322 38.2604 66.842 36.8103 63.2651 36.2302C62.8784 36.1336 62.685 36.2302 62.4917 36.6169C61.5249 38.3571 59.0114 38.2604 58.0447 36.6169C57.8514 36.3269 57.658 36.2302 57.368 36.3269C56.2079 36.6169 55.0478 36.907 53.8877 37.197C53.6944 37.2937 53.3077 37.2937 53.1143 37.197C52.921 37.1003 52.7277 36.8103 52.8243 36.6169C52.921 36.4236 53.1143 36.0369 53.3077 36.0369C54.4678 35.6502 55.5312 35.4569 56.6913 35.1668C56.7879 35.1668 56.7879 35.1668 56.8846 35.1668C57.4647 35.1668 57.7547 34.9735 57.948 34.3935C58.4314 33.2334 59.3015 32.75 60.4615 32.75C61.525 32.8467 62.395 33.33 62.7817 34.3935C62.9751 34.7801 63.1684 34.8768 63.5551 34.9735C67.422 35.5535 70.8056 37.0036 73.8025 39.5172C74.0925 39.7105 74.2859 39.8072 74.6726 39.6138C75.6393 39.2271 76.7994 39.5172 77.4761 40.2905C78.1528 41.0639 78.3462 42.224 77.8628 43.1907C77.7661 43.3841 77.6694 43.5774 77.8628 43.8675C82.2131 50.3446 82.7931 57.2084 79.8929 64.4589C79.8929 64.5556 79.7963 64.6523 79.7963 64.749C79.9896 64.8456 80.0863 64.9423 80.2796 65.1357C81.2464 65.909 81.7297 66.8758 81.7297 68.1325C81.7297 70.066 81.7297 72.0962 81.7297 74.0296C81.7297 75.1897 81.1497 75.7698 79.9896 75.7698C77.6694 75.7698 75.4459 75.7698 73.1258 75.7698C72.9324 75.7698 72.7391 75.7698 72.5457 75.7698C72.5457 76.3498 72.5457 76.8332 72.5457 77.3165C72.6424 78.2833 72.2557 78.8633 71.3857 79.25C63.9418 79.1533 56.6913 79.1533 49.3441 79.1533ZM65.1985 68.1325C64.9085 71.2261 62.5884 72.8695 60.3649 72.8695C59.2048 72.8695 58.238 72.5795 57.368 71.8061C56.1112 70.8394 55.5312 69.5826 55.4345 68.0359C54.3711 68.0359 53.4044 68.0359 52.341 68.0359C50.6008 68.0359 49.5374 69.0993 49.5374 70.8394C49.5374 72.9662 49.5374 75.093 49.5374 77.2199C49.5374 77.6066 49.6341 77.7999 50.1175 77.7999C54.0811 77.7999 58.0447 77.7999 62.0083 77.7999C64.9085 77.7999 67.8087 77.7999 70.7089 77.7999C70.9023 77.7999 71.1923 77.8966 71.1923 77.5099C71.1923 75.1897 71.1923 72.9662 71.1923 70.6461C71.1923 69.3893 70.1289 68.2292 68.9688 68.2292C67.6154 68.0359 66.4553 68.1325 65.1985 68.1325ZM64.9085 54.8883C61.815 55.9517 59.1081 54.7916 56.3046 54.1149C56.2079 54.2115 56.1112 54.3082 56.1112 54.5016C55.6279 55.1783 55.4345 55.9517 55.4345 56.7251C55.4345 58.3685 55.3378 60.012 55.5312 61.5587C55.8212 64.0722 58.1414 65.909 60.6549 65.7157C63.1684 65.5224 65.1985 63.4922 65.1985 60.9787C65.1985 59.5286 65.1985 58.0785 65.1985 56.6284C65.1985 56.0483 65.0052 55.4683 64.9085 54.8883ZM46.0572 53.4382C45.9605 54.0182 45.7672 54.5016 45.6705 54.9849C45.5738 56.435 45.5738 57.9818 45.6705 59.4319C45.8638 62.0421 48.184 63.7822 50.6975 63.3955C51.9543 63.2022 53.0177 62.4288 53.6944 61.3654C53.5977 61.3654 53.501 61.2687 53.501 61.2687C51.8576 60.592 51.2775 59.0452 52.1476 57.4984C52.1476 57.4018 52.2443 57.4018 52.2443 57.3051C52.2443 56.3384 52.2443 55.4683 52.2443 54.5016C50.1175 54.5016 48.184 54.0182 46.0572 53.4382ZM80.183 74.3196C80.183 72.0962 80.183 69.9693 80.183 67.8425C80.183 66.8758 79.4096 65.909 78.4428 65.8124C77.2827 65.7157 76.2193 65.8124 75.0593 65.8124C74.7692 67.9392 74.1892 68.8093 72.3524 69.8727C72.3524 71.4194 72.3524 72.8695 72.3524 74.3196C75.0593 74.3196 77.5728 74.3196 80.183 74.3196ZM66.9387 61.2687C66.9387 61.3654 67.0353 61.4621 67.0353 61.4621C68.0021 62.9122 69.9356 63.6856 71.579 63.2989C73.4158 62.8155 74.7692 61.3654 74.8659 59.5286C74.9626 58.1752 74.9626 56.7251 74.8659 55.3716C74.8659 54.8883 74.6726 54.3082 74.6726 53.8248C72.4491 54.8883 70.4189 54.2115 68.2921 53.8248C68.2921 54.7916 68.2921 55.7583 68.2921 56.7251C68.2921 57.0151 68.3888 57.2084 68.4854 57.4018C69.1622 58.7552 68.6788 60.3987 67.2287 60.9787C67.132 61.172 67.0353 61.2687 66.9387 61.2687ZM66.0686 48.7011C66.3586 49.3779 66.6486 50.0546 66.9387 50.7313C67.0353 51.0213 67.132 51.118 67.3254 51.3113C67.6154 51.6014 67.9054 51.8914 68.1954 52.2781C68.2921 52.3747 68.4854 52.5681 68.5821 52.6648C69.2588 52.8581 69.8389 53.0515 70.5156 53.0515C71.4823 53.1481 72.3524 53.1481 73.3191 53.0515C73.6091 53.0515 73.8025 52.6648 73.9958 52.4714C74.1892 52.2781 74.3825 51.988 74.5759 51.988C74.7692 51.988 75.0593 52.1814 75.2526 52.3747C75.5426 52.7614 75.736 53.1481 75.9293 53.6315C75.9293 52.8581 75.9293 52.1814 75.9293 51.6014C75.9293 51.5047 75.736 51.3113 75.6393 51.2147C75.1559 51.118 74.9626 50.828 74.9626 50.3446C74.8659 49.0878 73.8992 48.1211 72.6424 48.1211C70.999 48.1211 69.3555 48.1211 67.7121 48.1211C67.0353 48.0244 66.4553 48.3145 66.0686 48.7011ZM44.6071 53.4382C44.8004 53.1481 44.9938 52.8581 45.0904 52.5681C45.4771 51.988 45.6705 51.8914 46.3472 52.0847C47.3139 52.3747 48.2807 52.5681 49.2474 52.8581C50.2141 53.0515 51.2775 53.2448 52.341 53.0515C52.2443 51.408 52.4376 49.8612 53.5977 48.7011C53.1143 48.3145 52.631 48.1211 52.0509 48.1211C50.4075 48.1211 48.8607 48.1211 47.2173 48.1211C45.7672 48.1211 44.7037 49.0878 44.6071 50.5379C44.5104 51.408 44.6071 52.4714 44.6071 53.4382ZM62.2983 66.7791C60.7516 67.1658 60.2682 67.2625 58.238 66.7791C58.5281 67.9392 57.8514 68.2292 56.8846 68.0359C56.9813 69.9693 58.5281 71.5161 60.4615 71.5161C62.395 71.4194 63.9418 69.8727 63.8451 68.1325C63.4584 68.0359 62.9751 68.0359 62.7817 67.8425C62.395 67.6492 62.395 67.1658 62.2983 66.7791ZM48.6674 68.5192C49.1507 68.0359 49.6341 67.6492 50.1175 67.2625C50.8909 66.7791 51.6642 66.6824 52.631 66.6824C52.8243 66.6824 53.0177 66.5858 53.0177 66.4891C53.1143 66.2957 53.1143 66.0057 53.211 65.619C52.341 65.7157 51.7609 65.5224 51.8576 64.4589C50.6008 64.8456 49.4407 64.8456 48.2807 64.5556C48.184 64.9423 48.0873 65.329 47.894 65.5224C47.7006 65.7157 47.2173 65.7157 46.9272 65.8124C46.8306 66.8758 47.604 68.0359 48.6674 68.5192ZM68.7755 64.5556C68.5821 65.5224 68.5821 65.5224 67.5187 65.7157C67.422 66.5858 67.5187 66.6824 68.3888 66.6824C69.4522 66.6824 70.4189 66.9725 71.1923 67.7458C71.4823 67.9392 71.6757 68.2292 71.9657 68.5192C73.1258 68.0359 73.9958 66.6824 73.8025 65.7157C72.7391 65.619 72.6424 65.7157 72.5457 64.5556C71.1923 64.9423 70.0322 64.8456 68.7755 64.5556ZM45.1871 43.2874C45.8638 43.2874 46.4439 42.7074 46.4439 42.0307C46.4439 41.354 45.8638 40.7739 45.2838 40.7739C44.6071 40.7739 44.027 41.2573 44.027 41.934C43.9304 42.7074 44.5104 43.2874 45.1871 43.2874ZM60.2682 36.5203C60.9449 36.5203 61.5249 35.9402 61.5249 35.2635C61.5249 34.5868 60.9449 34.1034 60.2682 34.0068C59.5915 34.0068 59.0114 34.5868 59.0114 35.2635C59.1081 36.0369 59.5915 36.5203 60.2682 36.5203ZM75.4459 43.2874C76.1227 43.2874 76.7027 42.7074 76.7027 42.0307C76.7027 41.354 76.2193 40.8706 75.5426 40.7739C74.8659 40.7739 74.2859 41.2573 74.2859 41.934C74.1892 42.7074 74.7692 43.2874 75.4459 43.2874ZM56.7879 66.6824C56.8846 66.1024 56.6913 65.7157 56.3046 65.7157C55.7245 65.619 55.1445 65.7157 54.4678 65.7157C54.4678 66.1024 54.3711 66.3924 54.3711 66.6824C55.2412 66.6824 56.0146 66.6824 56.7879 66.6824ZM66.0686 65.7157C65.5852 65.7157 65.1019 65.7157 64.6185 65.7157C63.9418 65.7157 63.6518 66.0057 63.8451 66.6824C64.6185 66.6824 65.3919 66.6824 66.262 66.6824C66.1653 66.2957 66.1653 66.0057 66.0686 65.7157ZM67.422 64.2656C67.422 63.3955 66.552 63.2989 66.262 62.7188C65.9719 63.2989 65.7786 63.6856 65.4886 64.2656C66.1653 64.2656 66.7453 64.2656 67.422 64.2656ZM55.0478 64.2656C54.7578 63.7822 54.5645 63.2989 54.2744 62.8155C53.9844 63.1055 53.7911 63.2989 53.501 63.4922C53.211 63.6856 52.921 63.8789 53.1143 64.2656C53.8877 64.2656 54.4678 64.2656 55.0478 64.2656ZM53.9844 59.9153C53.9844 59.1419 53.9844 58.4652 53.9844 57.6918C53.4044 57.7885 53.1143 58.1752 53.1143 58.6585C53.1143 59.2386 53.4044 59.7219 53.9844 59.9153ZM66.552 57.6918C66.552 58.4652 66.552 59.1419 66.552 59.9153C67.132 59.8186 67.422 59.3352 67.422 58.8519C67.5187 58.2718 67.132 57.8851 66.552 57.6918ZM44.317 56.3384C43.8337 56.5317 43.6403 56.9184 43.6403 57.3051C43.6403 57.6918 43.8337 57.9818 44.317 58.1752C44.317 57.5951 44.317 57.0151 44.317 56.3384ZM76.316 58.1752C76.7994 57.9818 76.9927 57.6918 76.9927 57.2084C76.9927 56.8217 76.7994 56.5317 76.316 56.3384C76.316 57.0151 76.316 57.5951 76.316 58.1752Z" fill="white"/>
            <defs>
                <filter id="filter0_d_1457_20747" x="0" y="0" width="120" height="120" filterUnits="userSpaceOnUse" color-interpolation-filters="sRGB">
                    <feFlood flood-opacity="0" result="BackgroundImageFix"/>
                    <feColorMatrix in="SourceAlpha" type="matrix" values="0 0 0 0 0 0 0 0 0 0 0 0 0 0 0 0 0 0 127 0" result="hardAlpha"/>
                    <feOffset dy="4"/>
                    <feGaussianBlur stdDeviation="12.5"/>
                    <feComposite in2="hardAlpha" operator="out"/>
                    <feColorMatrix type="matrix" values="0 0 0 0 0.917647 0 0 0 0 0.364706 0 0 0 0 0.733333 0 0 0 0.25 0"/>
                    <feBlend mode="normal" in2="BackgroundImageFix" result="effect1_dropShadow_1457_20747"/>
                    <feBlend mode="normal" in="SourceGraphic" in2="effect1_dropShadow_1457_20747" result="shape"/>
                </filter>
            </defs>
        </symbol>

        <symbol id="leaner-line" xmlns="http://www.w3.org/2000/svg" width="261" height="7" viewBox="0 0 261 7" fill="none">
           <rect width="261" height="7" rx="3.5" fill="url(#paint0_linear_1457_20796)"/>
            <defs>
                <linearGradient id="paint0_linear_1457_20796" x1="261" y1="0.62947" x2="238.495" y2="75.3108" gradientUnits="userSpaceOnUse">
                    <stop stop-color="#7C4EAB"/>
                    <stop offset="1" stop-color="#DD51D4"/>
                </linearGradient>
            </defs>
        </symbol>

        <symbol id="logo-4" xmlns="http://www.w3.org/2000/svg" width="61" height="32" viewBox="0 0 61 32" fill="none">
            <mask id="mask0_1457_20131" style="mask-type:alpha" maskUnits="userSpaceOnUse" x="0" y="0" width="61" height="32">
                <ellipse cx="30.208" cy="16.0983" rx="30.208" ry="15.3025" fill="url(#paint0_linear_1457_20131)"/>
            </mask>
            <g mask="url(#mask0_1457_20131)">
                <ellipse cx="30.208" cy="16.0983" rx="30.208" ry="15.3025" fill="url(#paint1_linear_1457_20131)"/>
                <path d="M39.8129 20.345V3.33628C39.8129 3.07614 39.828 2.79304 39.8582 2.48699C39.9186 2.18094 39.9791 1.86723 40.0395 1.54588L12.3085 20.345H39.8129ZM65.4824 20.345V21.5386C65.4824 21.707 65.3766 21.8447 65.1652 21.9518C64.9839 22.0436 64.6819 22.0895 64.2589 22.0895H43.6191V31.4088H39.8129V22.0895H9.4992C9.04608 22.0895 8.69869 22.0436 8.45702 21.9518C8.21536 21.8447 8.04921 21.707 7.95859 21.5386L7.55078 20.4598L39.7676 -1.11676H43.6191V20.345H65.4824Z" fill="white"/>
            </g>
            <defs>
                <linearGradient id="paint0_linear_1457_20131" x1="69.4784" y1="-8.38575" x2="52.1749" y2="43.0986" gradientUnits="userSpaceOnUse">
                    <stop stop-color="#FF00AA"/>
                    <stop offset="1" stop-color="#8912DE"/>
                </linearGradient>
                <linearGradient id="paint1_linear_1457_20131" x1="69.4784" y1="-8.38575" x2="52.1749" y2="43.0986" gradientUnits="userSpaceOnUse">
                    <stop stop-color="#FF00AA"/>
                    <stop offset="1" stop-color="#8912DE"/>
                </linearGradient>
            </defs>
        </symbol>

        <symbol id="purse" xmlns="http://www.w3.org/2000/svg" width="48" height="47" viewBox="0 0 48 47" fill="none">
            <path d="M0 43.075C0 36.4 0 29.8 0 23.125C0.3 22.15 1.05 21.625 1.875 21.175C2.175 21.025 2.475 20.875 2.775 20.8C3.15 20.725 3.225 20.5 3.225 20.2C3.225 15.475 3.225 10.825 3.225 6.1C3.225 2.725 5.625 0.25 8.85 0.25C19.95 0.25 31.125 0.25 42.225 0.25C43.8 0.25 44.775 1.225 44.775 2.875C44.775 5.05 44.775 7.225 44.775 9.4C44.775 9.55 44.775 9.775 44.775 9.925C47.025 10.675 48 11.95 48 14.275C48 22 48 29.8 48 37.525C48 37.975 48 38.425 47.85 38.875C47.4 40.675 45.825 41.875 43.8 41.875C37.125 41.875 30.525 41.875 23.85 41.875C23.625 41.875 23.475 41.875 23.25 41.875C23.25 41.95 23.25 41.95 23.25 41.95C23.25 42.025 23.25 42.1 23.25 42.175C23.325 43.3 22.8 44.125 21.825 44.65C21 45.1 20.1 45.475 19.275 45.7C16.875 46.375 14.325 46.6 11.85 46.6C8.925 46.6 6 46.375 3.15 45.4C1.8 45.025 0.525 44.5 0 43.075ZM46.425 21.85C46.425 21.625 46.425 21.475 46.425 21.325C46.425 18.925 46.425 16.525 46.425 14.125C46.425 12.4 45.45 11.425 43.725 11.425C32.175 11.425 20.55 11.425 9 11.425C7.5 11.425 6.15 10.975 5.025 10C4.95 9.925 4.875 9.925 4.8 9.85C4.8 13.3 4.8 16.675 4.8 20.05C4.95 20.05 5.1 20.05 5.25 19.975C9.225 19.15 13.2 19.15 17.25 19.825C18.825 20.05 20.4 20.5 21.825 21.325C22.725 22 23.25 22.75 23.25 23.95C23.175 29.2 23.25 34.375 23.25 39.625C23.25 39.85 23.25 40 23.25 40.225C23.4 40.225 23.55 40.225 23.7 40.225C30.45 40.225 37.125 40.225 43.875 40.225C45.45 40.225 46.5 39.25 46.5 37.6C46.5 35.2 46.5 32.725 46.5 30.325C46.5 30.175 46.5 30.025 46.5 29.875C45.225 29.875 43.95 29.875 42.75 29.875C42.15 29.875 41.55 29.8 40.95 29.575C39.225 28.9 38.25 26.95 38.625 25.15C39 23.275 40.575 21.925 42.45 21.925C43.65 21.85 45 21.85 46.425 21.85ZM43.2 6.625C42.975 6.625 42.75 6.625 42.525 6.625C30.9 6.625 19.2 6.625 7.575 6.625C6.75 6.625 6.375 6.325 6.375 5.8C6.375 5.275 6.75 4.975 7.575 4.975C19.2 4.975 30.9 4.975 42.525 4.975C42.75 4.975 42.9 4.975 43.2 4.975C43.2 4.225 43.2 3.55 43.2 2.95C43.2 2.05 42.975 1.825 42.075 1.825C31.05 1.825 20.1 1.825 9.075 1.825C8.7 1.825 8.325 1.825 8.025 1.9C6 2.35 4.65 4.225 4.8 6.1C5.025 8.2 6.675 9.775 8.775 9.775C20.1 9.775 31.425 9.775 42.825 9.775C42.975 9.775 43.05 9.775 43.2 9.7C43.2 8.8 43.2 7.75 43.2 6.625ZM11.625 21.025C9.375 21.025 7.125 21.175 4.95 21.775C3.975 22.075 3 22.45 2.1 22.9C1.425 23.275 1.425 23.65 2.1 24.025C2.625 24.325 3.15 24.55 3.675 24.775C5.4 25.375 7.125 25.6 8.925 25.75C12.075 25.975 15.225 25.9 18.375 25.15C19.275 24.925 20.175 24.55 21.075 24.1C21.825 23.725 21.825 23.275 21.075 22.825C20.625 22.525 20.1 22.3 19.575 22.15C16.95 21.25 14.325 21.1 11.625 21.025ZM1.575 25.675C1.575 26.35 1.65 27.025 1.575 27.7C1.5 28.3 1.8 28.75 2.325 28.975C3.45 29.35 4.5 29.875 5.7 30.1C8.85 30.775 12 30.775 15.225 30.475C17.025 30.325 18.75 29.95 20.475 29.275C21.3 28.9 21.825 28.45 21.675 27.4C21.6 26.875 21.675 26.275 21.675 25.75C15.15 28.075 7.875 28.075 1.575 25.675ZM1.575 35.275C1.575 36.025 1.65 36.7 1.575 37.375C1.575 37.975 1.8 38.35 2.25 38.5C3.075 38.875 3.9 39.25 4.8 39.475C9 40.525 13.275 40.45 17.55 39.7C18.75 39.475 19.95 39.175 21 38.5C21.225 38.35 21.6 38.125 21.6 37.825C21.675 37 21.6 36.1 21.6 35.2C18.375 36.7 15 37 11.625 37C8.175 37.075 4.8 36.775 1.575 35.275ZM1.575 40.075C1.575 40.825 1.575 41.5 1.575 42.25C1.575 42.775 1.725 43.15 2.175 43.375C3 43.75 3.75 44.125 4.575 44.35C8.85 45.4 13.2 45.4 17.55 44.575C18.675 44.35 19.8 43.825 20.925 43.45C21.15 43.375 21.525 43.075 21.525 42.85C21.6 42.025 21.525 41.125 21.525 40.225C15.225 42.475 7.875 42.475 1.575 40.075ZM21.6 30.475C18.375 31.975 15 32.275 11.625 32.275C8.25 32.275 4.8 31.975 1.65 30.475C1.65 31.3 1.65 32.05 1.65 32.8C1.65 33.175 1.8 33.475 2.1 33.625C2.7 33.925 3.3 34.225 3.9 34.45C5.85 35.125 7.95 35.35 9.975 35.425C12.825 35.575 15.675 35.425 18.45 34.675C19.35 34.45 20.25 34 21.075 33.625C21.3 33.55 21.6 33.175 21.6 32.95C21.6 32.2 21.6 31.375 21.6 30.475ZM46.35 28.225C46.35 26.575 46.35 25 46.35 23.425C44.925 23.425 43.575 23.425 42.225 23.425C41.025 23.5 40.05 24.55 40.05 25.75C40.05 26.95 40.95 28.075 42.15 28.15C43.5 28.3 44.925 28.225 46.35 28.225Z" fill="#CF51CE"/>
            <path d="M38.0253 14.6505C36.0753 14.6505 34.1253 14.6505 32.2503 14.6505C31.9503 14.6505 31.6503 14.5005 31.4253 14.3505C31.2753 14.2005 31.2003 13.7505 31.3503 13.6005C31.5003 13.3755 31.8003 13.1505 32.1003 13.1505C32.7003 13.0755 33.3003 13.1505 33.9003 13.1505C37.2003 13.1505 40.4253 13.1505 43.7253 13.1505C43.8753 13.1505 43.9503 13.1505 44.1003 13.1505C44.5503 13.2255 44.9253 13.5255 44.9253 13.9755C44.9253 14.4255 44.5503 14.7255 44.1003 14.7255C42.6753 14.7255 41.3253 14.7255 39.9003 14.7255C39.2253 14.6505 38.6253 14.6505 38.0253 14.6505Z" fill="#CF51CE"/>
            <path d="M27.9744 14.6512C27.6744 14.6512 27.3744 14.6512 27.1494 14.6512C26.6994 14.6512 26.3994 14.3512 26.3994 13.9012C26.3994 13.4512 26.6994 13.0762 27.1494 13.0762C27.7494 13.0762 28.2744 13.0762 28.8744 13.0762C29.3244 13.0762 29.6244 13.4512 29.6244 13.9012C29.6244 14.3512 29.2494 14.6512 28.7994 14.6512C28.4994 14.6512 28.2744 14.6512 27.9744 14.6512Z" fill="#CF51CE"/>
            <path d="M42.3738 26.65C41.9238 26.65 41.5488 26.275 41.5488 25.825C41.5488 25.375 41.9238 25 42.3738 25C42.8238 25 43.1238 25.375 43.1238 25.75C43.1988 26.275 42.8238 26.65 42.3738 26.65Z" fill="#CF51CE"/>
        </symbol>

        <symbol id="site" xmlns="http://www.w3.org/2000/svg" width="120" height="120" viewBox="0 0 120 120" fill="none">
            <path d="M6.19337 23.2458C5.42854 23.2458 4.54687 23.1289 3.54834 22.8952L0.393433 22.0348L1.25386 19.4535C3.03846 20.0909 4.52562 20.4096 5.71535 20.4096C6.35271 20.4096 6.88384 20.2608 7.30874 19.9634C7.73364 19.666 7.94609 19.2623 7.94609 18.7524C7.94609 18.2426 7.808 17.8601 7.53181 17.6052C7.25563 17.3503 6.74574 17.1272 6.00216 16.936L4.2813 16.4898C1.90184 15.8737 0.712111 14.4715 0.712111 12.2833C0.712111 10.9661 1.21137 9.88258 2.2099 9.03277C3.22966 8.18296 4.55749 7.75806 6.19337 7.75806C6.85197 7.75806 7.62742 7.87491 8.51971 8.1086L11.6746 8.96903L10.8142 11.5503C9.09333 10.913 7.78676 10.5943 6.89446 10.5943C6.29959 10.5943 5.80033 10.7536 5.39667 11.0723C4.99301 11.3697 4.79119 11.7628 4.79119 12.2514C4.79119 12.7613 4.92928 13.1437 5.20547 13.3987C5.48165 13.6536 5.99154 13.8767 6.73512 14.0679L8.42411 14.514C9.69882 14.8539 10.6124 15.3745 11.1647 16.0755C11.7171 16.7554 11.9933 17.6371 11.9933 18.7206C11.9933 20.0165 11.5047 21.1 10.5274 21.9711C9.55011 22.8209 8.10543 23.2458 6.19337 23.2458ZM19.8228 23.2458C18.2294 23.2458 17.1034 22.8528 16.4448 22.0667C15.8075 21.2806 15.4888 20.0803 15.4888 18.4656V10.8492H13.1306V8.04487H15.4888V4.31634L19.536 3.51965V8.04487H23.0415V10.8492H19.536V18.5294C19.536 19.7828 20.0459 20.4096 21.0657 20.4096C21.6818 20.4096 22.3404 20.2184 23.0415 19.8359L23.6788 22.226C22.5103 22.9059 21.225 23.2458 19.8228 23.2458ZM29.7456 23.2458C28.301 23.2458 27.1537 22.7996 26.3039 21.9073C25.4541 21.0151 25.0292 19.9528 25.0292 18.7206C25.0292 17.807 25.3266 17.0741 25.9215 16.5217C26.5376 15.9481 27.4936 15.5019 28.7896 15.1832L33.9203 13.9085V12.602C33.9203 11.9858 33.7291 11.4972 33.3467 11.136C32.9855 10.7749 32.4756 10.5943 31.817 10.5943C31.0735 10.5943 29.3951 11.1573 26.7819 12.2833L25.6666 9.70199L29.2995 8.36355C30.4042 7.95989 31.2116 7.75806 31.7214 7.75806C33.6548 7.75806 35.1738 8.26794 36.2785 9.28771C37.4045 10.2862 37.9675 11.6034 37.9675 13.2393V18.7206C37.9675 19.1242 38.0313 19.7297 38.1587 20.537C38.3074 21.3231 38.4987 21.9923 38.7323 22.5447L35.2588 23.2458C34.8339 22.7784 34.3877 22.1304 33.9203 21.3019C32.4969 22.5978 31.1053 23.2458 29.7456 23.2458ZM31.1797 20.4096C32.0083 20.4096 32.9218 19.9315 33.9203 18.9755V15.7569L30.7335 16.681C29.7138 16.9785 29.2039 17.5415 29.2039 18.37C29.2039 19.0074 29.3845 19.5066 29.7456 19.8678C30.1068 20.229 30.5848 20.4096 31.1797 20.4096ZM46.3851 23.2458C44.7917 23.2458 43.6657 22.8528 43.0071 22.0667C42.3698 21.2806 42.0511 20.0803 42.0511 18.4656V10.8492H39.6929V8.04487H42.0511V4.31634L46.0983 3.51965V8.04487H49.6037V10.8492H46.0983V18.5294C46.0983 19.7828 46.6082 20.4096 47.6279 20.4096C48.244 20.4096 48.9026 20.2184 49.6037 19.8359L50.2411 22.226C49.0726 22.9059 47.7873 23.2458 46.3851 23.2458ZM91.3941 22.959H87.3469V14.2591C87.3469 12.9844 87.1557 12.0602 86.7733 11.4866C86.4121 10.8917 85.8278 10.5943 85.0205 10.5943C84.2132 10.5943 83.3422 11.0723 82.4074 12.0283V22.959H78.3602V14.2591C78.3602 12.9844 78.1796 12.0602 77.8184 11.4866C77.4572 10.8917 76.8624 10.5943 76.0338 10.5943C75.2477 10.5943 74.3767 11.0723 73.4207 12.0283V22.959H69.3735V12.2833C69.3735 11.8796 69.2991 11.2848 69.1504 10.4987C69.0229 9.69137 68.8423 9.01152 68.6086 8.45915L72.0503 7.75806C72.4965 8.20421 72.9533 8.85219 73.4207 9.70199C74.7591 8.40604 76.1507 7.75806 77.5953 7.75806C79.7411 7.75806 81.1964 8.51226 81.9612 10.0207C82.4286 9.40456 83.0978 8.87343 83.9689 8.42728C84.8399 7.98113 85.711 7.75806 86.582 7.75806C88.1967 7.75806 89.397 8.22545 90.1831 9.16024C90.9904 10.095 91.3941 11.5503 91.3941 13.5261V22.959ZM98.7418 23.2458C97.2972 23.2458 96.1499 22.7996 95.3001 21.9073C94.4503 21.0151 94.0254 19.9528 94.0254 18.7206C94.0254 17.807 94.3228 17.0741 94.9177 16.5217C95.5338 15.9481 96.4899 15.5019 97.7858 15.1832L102.917 13.9085V12.602C102.917 11.9858 102.725 11.4972 102.343 11.136C101.982 10.7749 101.472 10.5943 100.813 10.5943C100.07 10.5943 98.3913 11.1573 95.7781 12.2833L94.6628 9.70199L98.2957 8.36355C99.4004 7.95989 100.208 7.75806 100.718 7.75806C102.651 7.75806 104.17 8.26794 105.275 9.28771C106.401 10.2862 106.964 11.6034 106.964 13.2393V18.7206C106.964 19.1242 107.027 19.7297 107.155 20.537C107.304 21.3231 107.495 21.9923 107.729 22.5447L104.255 23.2458C103.83 22.7784 103.384 22.1304 102.917 21.3019C101.493 22.5978 100.102 23.2458 98.7418 23.2458ZM100.176 20.4096C101.004 20.4096 101.918 19.9315 102.917 18.9755V15.7569L99.7297 16.681C98.71 16.9785 98.2001 17.5415 98.2001 18.37C98.2001 19.0074 98.3807 19.5066 98.7418 19.8678C99.103 20.229 99.581 20.4096 100.176 20.4096ZM114.641 22.959H110.594V12.2833C110.594 11.8796 110.519 11.2848 110.371 10.4987C110.243 9.69137 110.063 9.01152 109.829 8.45915L113.271 7.75806C113.929 8.41666 114.386 9.30896 114.641 10.435C115.066 9.58514 115.629 8.92654 116.33 8.45915C117.052 7.99176 117.828 7.75806 118.656 7.75806C119.124 7.75806 119.549 7.83242 119.931 7.98113L119.23 11.4547H118.178C117.18 11.4547 116.394 11.699 115.82 12.1877C115.268 12.6551 114.875 13.4411 114.641 14.5459V22.959ZM135.686 22.959H130.714L125.775 15.247V22.959H121.727V1.67131L125.775 0.874621V14.1316L130.81 8.04487H135.367L129.376 14.7052L135.686 22.959ZM142.94 23.2458C140.539 23.2458 138.723 22.5341 137.49 21.1107C136.279 19.666 135.674 17.7752 135.674 15.4382C135.674 13.1012 136.301 11.2423 137.554 9.86133C138.808 8.45915 140.55 7.75806 142.78 7.75806C147.093 7.75806 149.25 9.99943 149.25 14.4822C149.25 14.9496 149.196 15.3426 149.09 15.6613H139.849C139.849 17.2547 140.135 18.4444 140.709 19.2305C141.304 20.0165 142.122 20.4096 143.163 20.4096C144.331 20.4096 145.861 19.9847 147.752 19.1349L148.867 21.7161L145.489 22.959C144.915 23.1502 144.066 23.2458 142.94 23.2458ZM142.557 10.5943C141.707 10.5943 141.038 10.8917 140.55 11.4866C140.082 12.0815 139.849 12.825 139.849 13.7173H145.043C145.043 11.6353 144.214 10.5943 142.557 10.5943ZM157.185 23.2458C155.592 23.2458 154.466 22.8528 153.807 22.0667C153.17 21.2806 152.851 20.0803 152.851 18.4656V10.8492H150.493V8.04487H152.851V4.31634L156.899 3.51965V8.04487H160.404V10.8492H156.899V18.5294C156.899 19.7828 157.408 20.4096 158.428 20.4096C159.044 20.4096 159.703 20.2184 160.404 19.8359L161.041 22.226C159.873 22.9059 158.588 23.2458 157.185 23.2458Z" fill="#54618E"/>
            <path d="M64.7529 22.959H60.8969V18.0513H52.197L51.3365 15.5657L60.4189 2.56361H64.7529V15.0558H66.7924V18.0513H64.7529V22.959ZM60.8969 15.0558V6.77016L55.2563 15.0558H60.8969Z" fill="#D653D2"/>
            <g filter="url(#filter0_d_1457_20725)">
                <rect x="25" y="21" width="70" height="70" rx="15" fill="#CF51CE"/>
            </g>
            <path d="M39.2 72.6H60.8V75C60.8 76.325 61.875 77.4 63.2 77.4H66.4C67.1 77.4 67.7625 77.0875 68.2125 76.5625C68.225 76.5625 68.2375 76.5625 68.25 76.55C68.8375 77.1 69.6 77.4 70.4 77.4H80C81.325 77.4 82.4 76.325 82.4 75C82.4 74.5875 82.2875 74.175 82.075 73.825C83.1625 73.15 83.525 71.7375 82.875 70.625C83.475 70.25 83.875 69.625 83.975 68.925C84.075 68.225 83.85 67.5125 83.375 67C84.0125 66.3 84.175 65.2875 83.7875 64.425C83.4 63.5625 82.5375 63 81.5875 63H79.1875V38.2C79.1875 36.4375 77.75 35 75.9875 35H39.2C37.4375 35 36 36.4375 36 38.2V69.4C36 71.1625 37.4375 72.6 39.2 72.6ZM66.4 75.8H63.2C62.7625 75.8 62.4 75.4375 62.4 75V67.8C62.4 67.3625 62.7625 67 63.2 67H66.4C66.8375 67 67.2 67.3625 67.2 67.8V75C67.2 75.4375 66.8375 75.8 66.4 75.8ZM82.4 65.4C82.4 65.8375 82.0375 66.2 81.6 66.2H79.2C78.7625 66.2 78.4 66.5625 78.4 67C78.4 67.4375 78.7625 67.8 79.2 67.8H81.6C82.0375 67.8 82.4 68.1625 82.4 68.6C82.4 69.0375 82.0375 69.4 81.6 69.4H79.2C78.7625 69.4 78.4 69.7625 78.4 70.2C78.4 70.6375 78.7625 71 79.2 71H80.8C81.2375 71 81.6 71.3625 81.6 71.8C81.6 72.2375 81.2375 72.6 80.8 72.6H79.2C78.7625 72.6 78.4 72.9625 78.4 73.4C78.4 73.8375 78.7625 74.2 79.2 74.2H80C80.4375 74.2 80.8 74.5625 80.8 75C80.8 75.4375 80.4375 75.8 80 75.8H70.4C69.5125 75.8 68.8 75.0875 68.8 74.2V67.4625C69.8 66.8375 70.55 65.875 70.925 64.7625C71.6375 62.625 72 60.3875 72 58.1375C72 58.025 72.075 57.9375 72.175 57.9C72.45 57.85 73.1625 57.725 73.8375 59.05C74.2125 59.8125 74.4 60.65 74.3875 61.5125V63.8C74.3875 64.2375 74.75 64.6 75.1875 64.6H81.5875C82.0375 64.6 82.4 64.9625 82.4 65.4ZM76 63V61.5125C76.0125 60.4125 75.7625 59.3125 75.275 58.325C74.4875 56.7875 73.2875 56.075 71.9 56.325C71.025 56.4875 70.4 57.25 70.4 58.1375C70.4 60.2125 70.0625 62.2875 69.4125 64.2625C69.1625 65 68.675 65.625 68.025 66.0625C67.5875 65.65 67 65.425 66.4 65.4125H63.2C61.875 65.4125 60.8 66.4875 60.8 67.8125V71.0125H39.2C38.3125 71.0125 37.6 70.3 37.6 69.4125V43H77.6V63H76ZM39.2 36.6H76C76.8875 36.6 77.6 37.3125 77.6 38.2V41.4H37.6V38.2C37.6 37.3125 38.3125 36.6 39.2 36.6Z" fill="white"/>
            <path fill-rule="evenodd" clip-rule="evenodd" d="M40.7992 38.999C40.7992 39.4365 40.4367 39.799 39.9992 39.799C39.5617 39.799 39.1992 39.4365 39.1992 38.999C39.1992 38.5615 39.5617 38.199 39.9992 38.199C40.4367 38.199 40.7992 38.5615 40.7992 38.999Z" fill="white"/>
            <path fill-rule="evenodd" clip-rule="evenodd" d="M44.0004 38.999C44.0004 39.4365 43.6379 39.799 43.2004 39.799C42.7629 39.799 42.4004 39.4365 42.4004 38.999C42.4004 38.5615 42.7629 38.199 43.2004 38.199C43.6379 38.199 44.0004 38.5615 44.0004 38.999Z" fill="white"/>
            <path fill-rule="evenodd" clip-rule="evenodd" d="M47.1996 38.999C47.1996 39.4365 46.8371 39.799 46.3996 39.799C45.9621 39.799 45.5996 39.4365 45.5996 38.999C45.5996 38.5615 45.9621 38.199 46.3996 38.199C46.8371 38.199 47.1996 38.5615 47.1996 38.999Z" fill="white"/>
            <path d="M42.4 59.8005H55.2C56.525 59.8005 57.6 58.7255 57.6 57.4005V47.8005C57.6 46.4755 56.525 45.4005 55.2 45.4005H42.4C41.075 45.4005 40 46.4755 40 47.8005V57.4005C40 58.7255 41.075 59.8005 42.4 59.8005ZM44.3625 58.2005L48.0625 52.3755L49.8375 54.6005L47.5625 58.2005H44.3625ZM55.2 58.2005H49.4625L53.675 51.5755L56 54.488V57.413C56 57.838 55.6375 58.2005 55.2 58.2005ZM41.6 47.8005C41.6 47.363 41.9625 47.0005 42.4 47.0005H55.2C55.6375 47.0005 56 47.363 56 47.8005V51.9255L54.225 49.7005C54.0625 49.5005 53.8125 49.388 53.5625 49.4005C53.3 49.413 53.075 49.5505 52.925 49.7755L50.7625 53.1755L48.625 50.5005C48.4625 50.3005 48.2125 50.188 47.9625 50.2005C47.7 50.213 47.475 50.3505 47.325 50.5755L42.475 58.2005H42.4C41.9625 58.2005 41.6 57.838 41.6 57.4005V47.8005Z" fill="white"/>
            <path fill-rule="evenodd" clip-rule="evenodd" d="M44.7992 49.3995C44.7992 49.837 44.4367 50.1995 43.9992 50.1995C43.5617 50.1995 43.1992 49.837 43.1992 49.3995C43.1992 48.962 43.5617 48.5995 43.9992 48.5995C44.4367 48.5995 44.7992 48.962 44.7992 49.3995Z" fill="white"/>
            <path fill-rule="evenodd" clip-rule="evenodd" d="M74.4 46.199H60.8C60.3625 46.199 60 46.5615 60 46.999C60 47.4365 60.3625 47.799 60.8 47.799H74.4C74.8375 47.799 75.2 47.4365 75.2 46.999C75.2 46.5615 74.8375 46.199 74.4 46.199Z" fill="white"/>
            <path fill-rule="evenodd" clip-rule="evenodd" d="M74.4 49.4005H60.8C60.3625 49.4005 60 49.763 60 50.2005C60 50.638 60.3625 51.0005 60.8 51.0005H74.4C74.8375 51.0005 75.2 50.638 75.2 50.2005C75.2 49.763 74.8375 49.4005 74.4 49.4005Z" fill="white"/>
            <path fill-rule="evenodd" clip-rule="evenodd" d="M74.4 52.5995H60.8C60.3625 52.5995 60 52.962 60 53.3995C60 53.837 60.3625 54.1995 60.8 54.1995H74.4C74.8375 54.1995 75.2 53.837 75.2 53.3995C75.2 52.962 74.8375 52.5995 74.4 52.5995Z" fill="white"/>
            <path fill-rule="evenodd" clip-rule="evenodd" d="M68 55.801H60.8C60.3625 55.801 60 56.1635 60 56.601C60 57.0385 60.3625 57.401 60.8 57.401H68C68.4375 57.401 68.8 57.0385 68.8 56.601C68.8 56.1635 68.4375 55.801 68 55.801Z" fill="white"/>
            <path fill-rule="evenodd" clip-rule="evenodd" d="M59.2 63H40.8C40.3625 63 40 63.3625 40 63.8C40 64.2375 40.3625 64.6 40.8 64.6H59.2C59.6375 64.6 60 64.2375 60 63.8C60 63.3625 59.6375 63 59.2 63Z" fill="white"/>
            <path fill-rule="evenodd" clip-rule="evenodd" d="M56.8 66.199H40.8C40.3625 66.199 40 66.5615 40 66.999C40 67.4365 40.3625 67.799 40.8 67.799H56.8C57.2375 67.799 57.6 67.4365 57.6 66.999C57.6 66.5615 57.2375 66.199 56.8 66.199Z" fill="white"/>
            <defs>
                <filter id="filter0_d_1457_20725" x="0" y="0" width="120" height="120" filterUnits="userSpaceOnUse" color-interpolation-filters="sRGB">
                    <feFlood flood-opacity="0" result="BackgroundImageFix"/>
                    <feColorMatrix in="SourceAlpha" type="matrix" values="0 0 0 0 0 0 0 0 0 0 0 0 0 0 0 0 0 0 127 0" result="hardAlpha"/>
                    <feOffset dy="4"/>
                    <feGaussianBlur stdDeviation="12.5"/>
                    <feComposite in2="hardAlpha" operator="out"/>
                    <feColorMatrix type="matrix" values="0 0 0 0 0.917647 0 0 0 0 0.364706 0 0 0 0 0.733333 0 0 0 0.25 0"/>
                    <feBlend mode="normal" in2="BackgroundImageFix" result="effect1_dropShadow_1457_20725"/>
                    <feBlend mode="normal" in="SourceGraphic" in2="effect1_dropShadow_1457_20725" result="shape"/>
                </filter>
            </defs>
        </symbol>

        <symbol id="start4market" xmlns="http://www.w3.org/2000/svg" width="162" height="24" viewBox="0 0 162 24" fill="none">
            <path d="M6.19337 23.2458C5.42854 23.2458 4.54687 23.1289 3.54834 22.8952L0.393433 22.0348L1.25386 19.4535C3.03846 20.0909 4.52562 20.4096 5.71535 20.4096C6.35271 20.4096 6.88384 20.2608 7.30874 19.9634C7.73364 19.666 7.94609 19.2623 7.94609 18.7524C7.94609 18.2426 7.808 17.8601 7.53181 17.6052C7.25563 17.3503 6.74574 17.1272 6.00216 16.936L4.2813 16.4898C1.90184 15.8737 0.712111 14.4715 0.712111 12.2833C0.712111 10.9661 1.21137 9.88258 2.2099 9.03277C3.22966 8.18296 4.55749 7.75806 6.19337 7.75806C6.85197 7.75806 7.62742 7.87491 8.51971 8.1086L11.6746 8.96903L10.8142 11.5503C9.09333 10.913 7.78676 10.5943 6.89446 10.5943C6.29959 10.5943 5.80033 10.7536 5.39667 11.0723C4.99301 11.3697 4.79119 11.7628 4.79119 12.2514C4.79119 12.7613 4.92928 13.1437 5.20547 13.3987C5.48165 13.6536 5.99154 13.8767 6.73512 14.0679L8.42411 14.514C9.69882 14.8539 10.6124 15.3745 11.1647 16.0755C11.7171 16.7554 11.9933 17.6371 11.9933 18.7206C11.9933 20.0165 11.5047 21.1 10.5274 21.9711C9.55011 22.8209 8.10543 23.2458 6.19337 23.2458ZM19.8228 23.2458C18.2294 23.2458 17.1034 22.8528 16.4448 22.0667C15.8075 21.2806 15.4888 20.0803 15.4888 18.4656V10.8492H13.1306V8.04487H15.4888V4.31634L19.536 3.51965V8.04487H23.0415V10.8492H19.536V18.5294C19.536 19.7828 20.0459 20.4096 21.0657 20.4096C21.6818 20.4096 22.3404 20.2184 23.0415 19.8359L23.6788 22.226C22.5103 22.9059 21.225 23.2458 19.8228 23.2458ZM29.7456 23.2458C28.301 23.2458 27.1537 22.7996 26.3039 21.9073C25.4541 21.0151 25.0292 19.9528 25.0292 18.7206C25.0292 17.807 25.3266 17.0741 25.9215 16.5217C26.5376 15.9481 27.4936 15.5019 28.7896 15.1832L33.9203 13.9085V12.602C33.9203 11.9858 33.7291 11.4972 33.3467 11.136C32.9855 10.7749 32.4756 10.5943 31.817 10.5943C31.0735 10.5943 29.3951 11.1573 26.7819 12.2833L25.6666 9.70199L29.2995 8.36355C30.4042 7.95989 31.2116 7.75806 31.7214 7.75806C33.6548 7.75806 35.1738 8.26794 36.2785 9.28771C37.4045 10.2862 37.9675 11.6034 37.9675 13.2393V18.7206C37.9675 19.1242 38.0313 19.7297 38.1587 20.537C38.3074 21.3231 38.4987 21.9923 38.7323 22.5447L35.2588 23.2458C34.8339 22.7784 34.3877 22.1304 33.9203 21.3019C32.4969 22.5978 31.1053 23.2458 29.7456 23.2458ZM31.1797 20.4096C32.0083 20.4096 32.9218 19.9315 33.9203 18.9755V15.7569L30.7335 16.681C29.7138 16.9785 29.2039 17.5415 29.2039 18.37C29.2039 19.0074 29.3845 19.5066 29.7456 19.8678C30.1068 20.229 30.5848 20.4096 31.1797 20.4096ZM46.3851 23.2458C44.7917 23.2458 43.6657 22.8528 43.0071 22.0667C42.3698 21.2806 42.0511 20.0803 42.0511 18.4656V10.8492H39.6929V8.04487H42.0511V4.31634L46.0983 3.51965V8.04487H49.6037V10.8492H46.0983V18.5294C46.0983 19.7828 46.6082 20.4096 47.6279 20.4096C48.244 20.4096 48.9026 20.2184 49.6037 19.8359L50.2411 22.226C49.0726 22.9059 47.7873 23.2458 46.3851 23.2458ZM91.3941 22.959H87.3469V14.2591C87.3469 12.9844 87.1557 12.0602 86.7733 11.4866C86.4121 10.8917 85.8278 10.5943 85.0205 10.5943C84.2132 10.5943 83.3422 11.0723 82.4074 12.0283V22.959H78.3602V14.2591C78.3602 12.9844 78.1796 12.0602 77.8184 11.4866C77.4572 10.8917 76.8624 10.5943 76.0338 10.5943C75.2477 10.5943 74.3767 11.0723 73.4207 12.0283V22.959H69.3735V12.2833C69.3735 11.8796 69.2991 11.2848 69.1504 10.4987C69.0229 9.69137 68.8423 9.01152 68.6086 8.45915L72.0503 7.75806C72.4965 8.20421 72.9533 8.85219 73.4207 9.70199C74.7591 8.40604 76.1507 7.75806 77.5953 7.75806C79.7411 7.75806 81.1964 8.51226 81.9612 10.0207C82.4286 9.40456 83.0978 8.87343 83.9689 8.42728C84.8399 7.98113 85.711 7.75806 86.582 7.75806C88.1967 7.75806 89.397 8.22545 90.1831 9.16024C90.9904 10.095 91.3941 11.5503 91.3941 13.5261V22.959ZM98.7418 23.2458C97.2972 23.2458 96.1499 22.7996 95.3001 21.9073C94.4503 21.0151 94.0254 19.9528 94.0254 18.7206C94.0254 17.807 94.3228 17.0741 94.9177 16.5217C95.5338 15.9481 96.4899 15.5019 97.7858 15.1832L102.917 13.9085V12.602C102.917 11.9858 102.725 11.4972 102.343 11.136C101.982 10.7749 101.472 10.5943 100.813 10.5943C100.07 10.5943 98.3913 11.1573 95.7781 12.2833L94.6628 9.70199L98.2957 8.36355C99.4004 7.95989 100.208 7.75806 100.718 7.75806C102.651 7.75806 104.17 8.26794 105.275 9.28771C106.401 10.2862 106.964 11.6034 106.964 13.2393V18.7206C106.964 19.1242 107.027 19.7297 107.155 20.537C107.304 21.3231 107.495 21.9923 107.729 22.5447L104.255 23.2458C103.83 22.7784 103.384 22.1304 102.917 21.3019C101.493 22.5978 100.102 23.2458 98.7418 23.2458ZM100.176 20.4096C101.004 20.4096 101.918 19.9315 102.917 18.9755V15.7569L99.7297 16.681C98.71 16.9785 98.2001 17.5415 98.2001 18.37C98.2001 19.0074 98.3807 19.5066 98.7418 19.8678C99.103 20.229 99.581 20.4096 100.176 20.4096ZM114.641 22.959H110.594V12.2833C110.594 11.8796 110.519 11.2848 110.371 10.4987C110.243 9.69137 110.063 9.01152 109.829 8.45915L113.271 7.75806C113.929 8.41666 114.386 9.30896 114.641 10.435C115.066 9.58514 115.629 8.92654 116.33 8.45915C117.052 7.99176 117.828 7.75806 118.656 7.75806C119.124 7.75806 119.549 7.83242 119.931 7.98113L119.23 11.4547H118.178C117.18 11.4547 116.394 11.699 115.82 12.1877C115.268 12.6551 114.875 13.4411 114.641 14.5459V22.959ZM135.686 22.959H130.714L125.775 15.247V22.959H121.727V1.67131L125.775 0.874621V14.1316L130.81 8.04487H135.367L129.376 14.7052L135.686 22.959ZM142.94 23.2458C140.539 23.2458 138.723 22.5341 137.49 21.1107C136.279 19.666 135.674 17.7752 135.674 15.4382C135.674 13.1012 136.301 11.2423 137.554 9.86133C138.808 8.45915 140.55 7.75806 142.78 7.75806C147.093 7.75806 149.25 9.99943 149.25 14.4822C149.25 14.9496 149.196 15.3426 149.09 15.6613H139.849C139.849 17.2547 140.135 18.4444 140.709 19.2305C141.304 20.0165 142.122 20.4096 143.163 20.4096C144.331 20.4096 145.861 19.9847 147.752 19.1349L148.867 21.7161L145.489 22.959C144.915 23.1502 144.066 23.2458 142.94 23.2458ZM142.557 10.5943C141.707 10.5943 141.038 10.8917 140.55 11.4866C140.082 12.0815 139.849 12.825 139.849 13.7173H145.043C145.043 11.6353 144.214 10.5943 142.557 10.5943ZM157.185 23.2458C155.592 23.2458 154.466 22.8528 153.807 22.0667C153.17 21.2806 152.851 20.0803 152.851 18.4656V10.8492H150.493V8.04487H152.851V4.31634L156.899 3.51965V8.04487H160.404V10.8492H156.899V18.5294C156.899 19.7828 157.408 20.4096 158.428 20.4096C159.044 20.4096 159.703 20.2184 160.404 19.8359L161.041 22.226C159.873 22.9059 158.588 23.2458 157.185 23.2458Z" fill="#54618E"/>
            <path d="M64.7529 22.959H60.8969V18.0513H52.197L51.3365 15.5657L60.4189 2.56361H64.7529V15.0558H66.7924V18.0513H64.7529V22.959ZM60.8969 15.0558V6.77016L55.2563 15.0558H60.8969Z" fill="#D653D2"/>
        </symbol>

         <symbol id="target" xmlns="http://www.w3.org/2000/svg"  width="120" height="120" viewBox="0 0 120 120" fill="none">
            <g filter="url(#filter0_d_1457_20710)">
                <rect x="25" y="21" width="70" height="70" rx="15" fill="#CF51CE"/>
            </g>
            <g clip-path="url(#clip0_1457_20710)">
                <path d="M70.8749 46.55C69.5249 47.9 68.1749 49.25 66.7499 50.675C68.3999 52.85 68.9999 55.325 68.3999 58.025C67.8749 60.125 66.6749 61.85 64.8749 63.05C61.3499 65.525 56.6249 65 53.6999 61.85C50.6999 58.625 50.5499 53.9 53.3999 50.525C55.9499 47.45 60.8999 45.95 65.3249 49.175C66.6749 47.825 68.0249 46.475 69.3749 45.05C66.9749 43.025 64.1999 41.825 60.8999 41.6C60.8999 42.5 60.8999 43.325 60.8999 44.225C60.8999 44.975 60.5249 45.425 59.9249 45.425C59.3249 45.425 58.9499 44.975 58.9499 44.225C58.9499 42.275 58.9499 40.4 58.9499 38.45C58.9499 38.225 58.9499 38 58.9499 37.775C57.0749 37.85 55.2749 38.225 53.5499 38.9C47.5499 41.3 43.7249 45.65 42.1499 51.95C42.1499 52.1 42.0749 52.175 42.0749 52.325C41.9249 52.85 41.4749 53.15 40.9499 53.075C40.4249 52.925 40.1249 52.475 40.1999 51.875C40.7249 49.175 41.7749 46.7 43.3499 44.525C47.0999 39.5 51.9749 36.575 58.1999 35.975C58.4249 35.975 58.7249 35.9 59.0249 35.9C59.0249 35.075 59.0249 34.175 59.0249 33.35C59.0249 32.45 59.3249 32 59.9999 32C60.5999 32 60.9749 32.45 60.9749 33.275C60.9749 35.225 60.9749 37.1 60.9749 39.05C60.9749 39.275 60.9749 39.5 60.9749 39.725C64.7249 40.025 68.0249 41.375 70.7999 43.775C71.2499 43.325 71.6249 42.875 72.1499 42.35C71.1749 41.675 70.2749 40.925 69.2249 40.325C67.5749 39.35 65.8499 38.6 63.9749 38.225C63.8249 38.225 63.6749 38.15 63.5999 38.15C63.0749 38 62.7749 37.475 62.9249 36.95C63.0749 36.425 63.5249 36.125 64.1249 36.275C66.5249 36.725 68.6999 37.625 70.7249 38.975C71.6999 39.65 72.5999 40.325 73.7249 41.15C73.7999 40.85 74.0249 40.625 74.0249 40.4C74.0249 39.35 74.0249 38.375 74.0249 37.325C74.0249 36.95 74.1749 36.5 74.4749 36.275C75.6749 35 76.9499 33.725 78.2249 32.45C78.5999 32.075 78.9749 31.925 79.4249 32.15C79.8749 32.3 80.0249 32.75 80.0249 33.2C80.0249 34.175 80.0249 35.075 80.0249 36.125C80.9999 36.125 81.9749 36.125 82.9499 36.125C83.4749 36.125 83.8499 36.275 84.0749 36.725C84.2249 37.25 84.0749 37.625 83.6999 37.925C82.4249 39.125 81.2249 40.4 80.0249 41.6C79.7249 41.9 79.2749 42.05 78.8999 42.05C77.9249 42.125 76.8749 42.05 75.8999 42.05C75.6749 42.05 75.3749 42.275 75.0749 42.35C76.7249 44.225 77.9249 46.1 78.8249 48.275C79.7249 50.45 80.1749 52.625 80.3249 55.025C81.2249 55.025 82.1249 55.025 82.9499 55.025C83.6999 55.025 84.1499 55.4 84.1499 56C84.1499 56.6 83.6999 56.975 82.9499 56.975C80.9999 56.975 79.0499 56.975 77.0999 56.975C76.8749 56.975 76.6499 56.975 76.5749 56.975C76.1249 58.625 75.8999 60.275 75.2999 61.775C73.3499 66.8 69.7499 70.1 64.5749 71.675C64.4249 71.675 64.3499 71.75 64.1999 71.75C63.5999 71.9 63.1499 71.6 62.9999 71.075C62.8499 70.55 63.1499 70.1 63.7499 69.875C64.1249 69.725 64.4999 69.65 64.7999 69.5C70.4999 67.325 73.7249 63.125 74.3999 57.125C74.3999 57.05 74.3999 57.05 74.3999 56.9C73.5749 56.9 72.6749 56.9 71.8499 56.9C71.0999 56.9 70.6499 56.525 70.6499 55.925C70.6499 55.325 71.0999 54.95 71.8499 54.95C73.7999 54.95 75.6749 54.95 77.6249 54.95C77.8499 54.95 78.0749 54.95 78.2999 54.95C77.9999 50.675 76.4999 46.925 73.7249 43.775C73.2749 44.225 72.8249 44.675 72.3749 45.125C72.4499 45.2 72.5249 45.35 72.6749 45.5C74.0999 47.225 75.1499 49.175 75.7499 51.35C76.0499 52.25 75.8249 52.775 75.2249 53C74.6249 53.15 74.1749 52.775 73.9499 51.95C73.1999 50 72.2249 48.2 70.8749 46.55ZM63.8999 50.675C61.6499 48.8 57.7499 48.65 55.1249 51.35C52.5749 54.05 52.5749 58.025 55.1999 60.65C57.8249 63.275 61.8749 63.35 64.4999 60.8C67.1999 58.25 67.1999 54.35 65.2499 51.95C64.8749 52.325 64.5749 52.625 64.1999 53C63.8999 53.225 63.9749 53.45 64.1249 53.75C64.6499 54.8 64.8749 55.85 64.5749 56.975C63.9749 59.6 61.2749 61.25 58.7249 60.575C56.0999 59.9 54.5249 57.125 55.2749 54.575C56.0999 51.95 58.8749 50.375 61.3499 51.425C62.3999 51.875 62.9999 51.575 63.5249 50.825C63.7499 50.825 63.8249 50.75 63.8999 50.675ZM62.5499 54.725C61.8749 55.4 61.2749 56.075 60.6749 56.675C60.2999 57.05 59.7749 57.05 59.3999 56.675C59.0249 56.3 58.9499 55.85 59.2499 55.4C59.3999 55.25 59.5499 55.1 59.6999 54.95C60.2249 54.425 60.7499 53.9 61.2749 53.375C59.8499 52.775 58.4249 53.225 57.6749 54.35C56.9249 55.475 57.0749 56.975 58.0499 57.95C59.0249 58.925 60.4499 59.075 61.6499 58.325C62.6999 57.575 63.1499 56.15 62.5499 54.725ZM75.8999 40.1C76.7249 40.1 77.4749 40.1 78.2249 40.1C78.3749 40.1 78.5999 40.1 78.6749 40.025C79.2749 39.425 79.9499 38.75 80.6999 38C80.0249 38 79.4999 38 79.0499 38C78.3749 38 77.9999 37.625 77.9999 36.95C77.9999 36.425 77.9999 35.9 77.9999 35.225C77.2499 35.975 76.6499 36.575 76.0499 37.175C75.9749 37.25 75.8999 37.4 75.8999 37.55C75.8249 38.45 75.8999 39.2 75.8999 40.1Z" fill="white"/>
                <path d="M39.7498 56.975C38.9248 56.975 38.0248 56.975 37.1248 56.975C36.3748 56.975 35.9248 56.6 35.9248 56C35.9248 55.4 36.3748 55.1 37.0498 55.025C39.2248 55.025 41.3248 55.025 43.4998 55.025C43.7998 53.75 43.9498 52.55 44.3248 51.35C44.6248 50.375 45.0748 49.4 45.4498 48.5C45.7498 47.9 46.2748 47.675 46.7998 47.975C47.3248 48.275 47.4748 48.8 47.0998 49.4C46.1998 51.2 45.5998 53.075 45.5248 55.1C46.3498 55.1 47.0998 55.1 47.9248 55.1C48.8248 55.1 49.2748 55.4 49.3498 56.075C49.3498 56.75 48.8998 57.05 47.9248 57.05C46.0498 57.05 44.2498 57.05 42.3748 57.05C42.1498 57.05 41.9248 57.05 41.6998 57.05C41.7748 58.625 41.9998 60.125 42.5248 61.55C44.7748 68.075 49.1998 72.2 55.8748 73.85C56.0998 73.925 56.3998 74 56.6248 74.15C56.9998 74.45 57.1498 74.825 56.9248 75.275C56.6998 75.725 56.3248 75.95 55.7998 75.875C53.4748 75.35 51.2248 74.525 49.1998 73.25C43.7998 69.5 40.6498 64.4 39.8998 57.8C39.8998 57.575 39.8248 57.35 39.8248 57.125C39.8248 57.125 39.8248 57.05 39.7498 56.975Z" fill="white"/>
                <path d="M60.9748 76.175C60.9748 77.075 60.9748 77.9 60.9748 78.8C60.9748 79.55 60.5998 80 59.9998 80C59.3998 80 59.0248 79.55 59.0248 78.8C59.0248 76.85 59.0248 74.9 59.0248 72.95C59.0248 72.725 59.0248 72.5 59.0248 72.35C58.0498 72.2 57.1498 72.05 56.2498 71.825C50.1748 70.25 46.1998 66.5 44.3248 60.5C44.2498 60.275 44.1748 60.125 44.1748 59.9C44.1748 59.375 44.3998 59.075 44.8498 58.925C45.2998 58.775 45.7498 58.925 45.9748 59.375C46.0498 59.6 46.1248 59.825 46.1998 60.05C47.8498 65.75 53.1748 70.1 59.0248 70.325C59.0248 69.5 59.0248 68.6 59.0248 67.775C59.0248 67.025 59.3998 66.575 59.9248 66.575C60.5248 66.575 60.8998 67.025 60.8998 67.775C60.8998 69.65 60.8998 71.6 60.8998 73.475C60.8998 73.7 60.8998 73.925 60.8998 74.3C62.0998 74.075 63.2998 73.925 64.4248 73.7C66.4498 73.25 68.2498 72.425 69.9748 71.3C70.1248 71.225 70.2748 71.075 70.4248 71C70.8748 70.85 71.2498 70.925 71.5498 71.3C71.8498 71.675 71.7748 72.125 71.4748 72.425C71.3248 72.575 71.0998 72.725 70.8748 72.875C67.9498 74.75 64.7248 75.8 61.2748 76.1C61.2748 76.1 61.1248 76.175 60.9748 76.175Z" fill="white"/>
                <path d="M76.3505 67.3249C75.3755 67.3249 75.0005 66.5749 75.3755 65.7499C76.0505 64.3999 76.7255 62.975 77.3255 61.55C77.5505 60.95 77.7005 60.275 77.8505 59.675C78.0005 59.075 78.4505 58.7749 78.9755 58.8499C79.5005 58.9999 79.8005 59.4499 79.7255 60.1249C79.2755 62.5249 78.3755 64.6999 77.0255 66.7249C76.8005 67.0249 76.5005 67.2499 76.3505 67.3249Z" fill="white"/>
                <path d="M51.3754 44.225C51.1504 44 50.7754 43.775 50.6254 43.4C50.4004 42.95 50.7004 42.575 51.0754 42.275C52.5004 41.375 54.0754 40.625 55.7254 40.25C56.2504 40.1 56.6254 40.25 56.8504 40.7C57.1504 41.225 56.9254 41.9 56.3254 42.125C54.7504 42.575 53.3254 43.175 51.9754 44.075C51.9004 44.075 51.7504 44.075 51.3754 44.225Z" fill="white"/>
                <path d="M49.6504 45.65C49.6504 46.175 49.2004 46.55 48.6754 46.55C48.1504 46.55 47.7754 46.1 47.7754 45.575C47.7754 45.05 48.2254 44.675 48.7504 44.675C49.2004 44.675 49.6504 45.125 49.6504 45.65Z" fill="white"/>
                <path d="M74.7 69.35C74.7 69.875 74.25 70.325 73.725 70.325C73.2 70.325 72.75 69.95 72.75 69.425C72.75 68.9 73.125 68.45 73.65 68.45C74.25 68.45 74.7 68.825 74.7 69.35Z" fill="white"/>
            </g>
            <defs>
                <filter id="filter0_d_1457_20710" x="0" y="0" width="120" height="120" filterUnits="userSpaceOnUse" color-interpolation-filters="sRGB">
                    <feFlood flood-opacity="0" result="BackgroundImageFix"/>
                    <feColorMatrix in="SourceAlpha" type="matrix" values="0 0 0 0 0 0 0 0 0 0 0 0 0 0 0 0 0 0 127 0" result="hardAlpha"/>
                    <feOffset dy="4"/>
                    <feGaussianBlur stdDeviation="12.5"/>
                    <feComposite in2="hardAlpha" operator="out"/>
                    <feColorMatrix type="matrix" values="0 0 0 0 0.917647 0 0 0 0 0.364706 0 0 0 0 0.733333 0 0 0 0.25 0"/>
                    <feBlend mode="normal" in2="BackgroundImageFix" result="effect1_dropShadow_1457_20710"/>
                    <feBlend mode="normal" in="SourceGraphic" in2="effect1_dropShadow_1457_20710" result="shape"/>
                </filter>
                <clipPath id="clip0_1457_20710">
                    <rect width="48" height="48" fill="white" transform="translate(36 32)"/>
                </clipPath>
            </defs>
        </symbol>

         <symbol id="tel" xmlns="http://www.w3.org/2000/svg" width="20" height="19" viewBox="0 0 20 19" fill="none">
            <path d="M13.1225 13.327L14.7379 11.7116C14.9554 11.4967 15.2307 11.3496 15.5303 11.2882C15.8298 11.2267 16.1408 11.2536 16.4254 11.3654L18.3941 12.1515C18.6817 12.2682 18.9283 12.4675 19.1029 12.7242C19.2774 12.9808 19.3721 13.2834 19.3749 13.5938V17.1996C19.3732 17.4107 19.3288 17.6194 19.2444 17.8129C19.16 18.0064 19.0373 18.1809 18.8837 18.3257C18.73 18.4706 18.5487 18.5829 18.3505 18.6558C18.1524 18.7287 17.9415 18.7608 17.7307 18.7501C3.93494 17.8919 1.15128 6.20918 0.624838 1.73801C0.6004 1.51845 0.622729 1.2962 0.690354 1.08588C0.757979 0.875564 0.869369 0.681949 1.0172 0.517773C1.16502 0.353597 1.34593 0.222582 1.54803 0.133345C1.75013 0.0441085 1.96883 -0.00132632 2.18975 2.94729e-05H5.67293C5.98375 0.000949514 6.2872 0.094838 6.54423 0.269619C6.80126 0.444399 7.00012 0.692079 7.11524 0.980802L7.9013 2.94956C8.01687 3.23302 8.04635 3.54425 7.98607 3.84438C7.92579 4.1445 7.77842 4.42021 7.56236 4.63706L5.94697 6.25245C5.94697 6.25245 6.87726 12.5481 13.1225 13.327Z" fill="#331A2F"/>
        </symbol>
    </svg>