<svg width="162" height="24" viewBox="0 0 162 24" fill="none" xmlns="http://www.w3.org/2000/svg">
<path d="M6.19337 23.2458C5.42854 23.2458 4.54687 23.1289 3.54834 22.8952L0.393433 22.0348L1.25386 19.4535C3.03846 20.0909 4.52562 20.4096 5.71535 20.4096C6.35271 20.4096 6.88384 20.2608 7.30874 19.9634C7.73364 19.666 7.94609 19.2623 7.94609 18.7524C7.94609 18.2426 7.808 17.8601 7.53181 17.6052C7.25563 17.3503 6.74574 17.1272 6.00216 16.936L4.2813 16.4898C1.90184 15.8737 0.712111 14.4715 0.712111 12.2833C0.712111 10.9661 1.21137 9.88258 2.2099 9.03277C3.22966 8.18296 4.55749 7.75806 6.19337 7.75806C6.85197 7.75806 7.62742 7.87491 8.51971 8.1086L11.6746 8.96903L10.8142 11.5503C9.09333 10.913 7.78676 10.5943 6.89446 10.5943C6.29959 10.5943 5.80033 10.7536 5.39667 11.0723C4.99301 11.3697 4.79119 11.7628 4.79119 12.2514C4.79119 12.7613 4.92928 13.1437 5.20547 13.3987C5.48165 13.6536 5.99154 13.8767 6.73512 14.0679L8.42411 14.514C9.69882 14.8539 10.6124 15.3745 11.1647 16.0755C11.7171 16.7554 11.9933 17.6371 11.9933 18.7206C11.9933 20.0165 11.5047 21.1 10.5274 21.9711C9.55011 22.8209 8.10543 23.2458 6.19337 23.2458ZM19.8228 23.2458C18.2294 23.2458 17.1034 22.8528 16.4448 22.0667C15.8075 21.2806 15.4888 20.0803 15.4888 18.4656V10.8492H13.1306V8.04487H15.4888V4.31634L19.536 3.51965V8.04487H23.0415V10.8492H19.536V18.5294C19.536 19.7828 20.0459 20.4096 21.0657 20.4096C21.6818 20.4096 22.3404 20.2184 23.0415 19.8359L23.6788 22.226C22.5103 22.9059 21.225 23.2458 19.8228 23.2458ZM29.7456 23.2458C28.301 23.2458 27.1537 22.7996 26.3039 21.9073C25.4541 21.0151 25.0292 19.9528 25.0292 18.7206C25.0292 17.807 25.3266 17.0741 25.9215 16.5217C26.5376 15.9481 27.4936 15.5019 28.7896 15.1832L33.9203 13.9085V12.602C33.9203 11.9858 33.7291 11.4972 33.3467 11.136C32.9855 10.7749 32.4756 10.5943 31.817 10.5943C31.0735 10.5943 29.3951 11.1573 26.7819 12.2833L25.6666 9.70199L29.2995 8.36355C30.4042 7.95989 31.2116 7.75806 31.7214 7.75806C33.6548 7.75806 35.1738 8.26794 36.2785 9.28771C37.4045 10.2862 37.9675 11.6034 37.9675 13.2393V18.7206C37.9675 19.1242 38.0313 19.7297 38.1587 20.537C38.3074 21.3231 38.4987 21.9923 38.7323 22.5447L35.2588 23.2458C34.8339 22.7784 34.3877 22.1304 33.9203 21.3019C32.4969 22.5978 31.1053 23.2458 29.7456 23.2458ZM31.1797 20.4096C32.0083 20.4096 32.9218 19.9315 33.9203 18.9755V15.7569L30.7335 16.681C29.7138 16.9785 29.2039 17.5415 29.2039 18.37C29.2039 19.0074 29.3845 19.5066 29.7456 19.8678C30.1068 20.229 30.5848 20.4096 31.1797 20.4096ZM46.3851 23.2458C44.7917 23.2458 43.6657 22.8528 43.0071 22.0667C42.3698 21.2806 42.0511 20.0803 42.0511 18.4656V10.8492H39.6929V8.04487H42.0511V4.31634L46.0983 3.51965V8.04487H49.6037V10.8492H46.0983V18.5294C46.0983 19.7828 46.6082 20.4096 47.6279 20.4096C48.244 20.4096 48.9026 20.2184 49.6037 19.8359L50.2411 22.226C49.0726 22.9059 47.7873 23.2458 46.3851 23.2458ZM91.3941 22.959H87.3469V14.2591C87.3469 12.9844 87.1557 12.0602 86.7733 11.4866C86.4121 10.8917 85.8278 10.5943 85.0205 10.5943C84.2132 10.5943 83.3422 11.0723 82.4074 12.0283V22.959H78.3602V14.2591C78.3602 12.9844 78.1796 12.0602 77.8184 11.4866C77.4572 10.8917 76.8624 10.5943 76.0338 10.5943C75.2477 10.5943 74.3767 11.0723 73.4207 12.0283V22.959H69.3735V12.2833C69.3735 11.8796 69.2991 11.2848 69.1504 10.4987C69.0229 9.69137 68.8423 9.01152 68.6086 8.45915L72.0503 7.75806C72.4965 8.20421 72.9533 8.85219 73.4207 9.70199C74.7591 8.40604 76.1507 7.75806 77.5953 7.75806C79.7411 7.75806 81.1964 8.51226 81.9612 10.0207C82.4286 9.40456 83.0978 8.87343 83.9689 8.42728C84.8399 7.98113 85.711 7.75806 86.582 7.75806C88.1967 7.75806 89.397 8.22545 90.1831 9.16024C90.9904 10.095 91.3941 11.5503 91.3941 13.5261V22.959ZM98.7418 23.2458C97.2972 23.2458 96.1499 22.7996 95.3001 21.9073C94.4503 21.0151 94.0254 19.9528 94.0254 18.7206C94.0254 17.807 94.3228 17.0741 94.9177 16.5217C95.5338 15.9481 96.4899 15.5019 97.7858 15.1832L102.917 13.9085V12.602C102.917 11.9858 102.725 11.4972 102.343 11.136C101.982 10.7749 101.472 10.5943 100.813 10.5943C100.07 10.5943 98.3913 11.1573 95.7781 12.2833L94.6628 9.70199L98.2957 8.36355C99.4004 7.95989 100.208 7.75806 100.718 7.75806C102.651 7.75806 104.17 8.26794 105.275 9.28771C106.401 10.2862 106.964 11.6034 106.964 13.2393V18.7206C106.964 19.1242 107.027 19.7297 107.155 20.537C107.304 21.3231 107.495 21.9923 107.729 22.5447L104.255 23.2458C103.83 22.7784 103.384 22.1304 102.917 21.3019C101.493 22.5978 100.102 23.2458 98.7418 23.2458ZM100.176 20.4096C101.004 20.4096 101.918 19.9315 102.917 18.9755V15.7569L99.7297 16.681C98.71 16.9785 98.2001 17.5415 98.2001 18.37C98.2001 19.0074 98.3807 19.5066 98.7418 19.8678C99.103 20.229 99.581 20.4096 100.176 20.4096ZM114.641 22.959H110.594V12.2833C110.594 11.8796 110.519 11.2848 110.371 10.4987C110.243 9.69137 110.063 9.01152 109.829 8.45915L113.271 7.75806C113.929 8.41666 114.386 9.30896 114.641 10.435C115.066 9.58514 115.629 8.92654 116.33 8.45915C117.052 7.99176 117.828 7.75806 118.656 7.75806C119.124 7.75806 119.549 7.83242 119.931 7.98113L119.23 11.4547H118.178C117.18 11.4547 116.394 11.699 115.82 12.1877C115.268 12.6551 114.875 13.4411 114.641 14.5459V22.959ZM135.686 22.959H130.714L125.775 15.247V22.959H121.727V1.67131L125.775 0.874621V14.1316L130.81 8.04487H135.367L129.376 14.7052L135.686 22.959ZM142.94 23.2458C140.539 23.2458 138.723 22.5341 137.49 21.1107C136.279 19.666 135.674 17.7752 135.674 15.4382C135.674 13.1012 136.301 11.2423 137.554 9.86133C138.808 8.45915 140.55 7.75806 142.78 7.75806C147.093 7.75806 149.25 9.99943 149.25 14.4822C149.25 14.9496 149.196 15.3426 149.09 15.6613H139.849C139.849 17.2547 140.135 18.4444 140.709 19.2305C141.304 20.0165 142.122 20.4096 143.163 20.4096C144.331 20.4096 145.861 19.9847 147.752 19.1349L148.867 21.7161L145.489 22.959C144.915 23.1502 144.066 23.2458 142.94 23.2458ZM142.557 10.5943C141.707 10.5943 141.038 10.8917 140.55 11.4866C140.082 12.0815 139.849 12.825 139.849 13.7173H145.043C145.043 11.6353 144.214 10.5943 142.557 10.5943ZM157.185 23.2458C155.592 23.2458 154.466 22.8528 153.807 22.0667C153.17 21.2806 152.851 20.0803 152.851 18.4656V10.8492H150.493V8.04487H152.851V4.31634L156.899 3.51965V8.04487H160.404V10.8492H156.899V18.5294C156.899 19.7828 157.408 20.4096 158.428 20.4096C159.044 20.4096 159.703 20.2184 160.404 19.8359L161.041 22.226C159.873 22.9059 158.588 23.2458 157.185 23.2458Z" fill="#54618E"/>
<path d="M64.7529 22.959H60.8969V18.0513H52.197L51.3365 15.5657L60.4189 2.56361H64.7529V15.0558H66.7924V18.0513H64.7529V22.959ZM60.8969 15.0558V6.77016L55.2563 15.0558H60.8969Z" fill="#D653D2"/>
</svg>
